<svg width="244" height="32" viewBox="0 0 244 32" fill="none" xmlns="http://www.w3.org/2000/svg">
<path d="M5.91124 17.5051H0V7.36426H13.209" fill="#1F2753"/>
<path d="M34.8811 17.5051H40.7914V7.36426H27.5824" fill="#1F2753"/>
<path d="M22.9857 0L27.7221 7.36422H13.2891L18.0255 0H22.9857Z" fill="#1F2753"/>
<path d="M5.91124 30.9077H0V20.7668H13.209" fill="#1F2753"/>
<path d="M34.8811 30.9077H40.7914V20.7668H27.5824" fill="#1F2753"/>
<path d="M22.9857 13.4028L27.7221 20.767H13.2891L18.0255 13.4028H22.9857Z" fill="#1F2753"/>
<path d="M169.941 0.87473C173.646 0.895462 177.711 0.526744 181.397 0.781452C185.484 1.0643 188.035 3.87505 188.172 7.92675C187.96 13.1187 188.456 18.5359 188.176 23.7012C188.074 25.5863 187.502 27.6018 186.147 28.9656H186.146C184.795 30.3266 182.835 30.8922 180.955 30.9944C178.048 31.1513 174.155 31.1513 171.25 30.9944C167.004 30.7649 163.961 28.4784 163.665 24.0668C163.308 18.7549 163.93 13.0565 163.665 7.70461C163.912 3.98613 166.247 1.40194 169.941 0.87473ZM70.4065 0.777606C75.8369 1.12416 77.8922 5.61429 77.1711 10.5841C76.8601 12.7329 75.2178 15.0148 73.1801 15.813C73.6244 16.1669 74.1856 16.3951 74.6551 16.7445C76.7948 18.3365 77.3266 20.768 77.2569 23.3315C77.1296 27.9962 74.6758 30.7523 69.9636 30.9951L56.0033 30.9922V0.780628H56.0018L70.4065 0.777606ZM122.459 0.777606C126.46 1.06788 129.366 3.49953 129.604 7.62672C129.918 13.0453 129.363 18.766 129.6 24.2156C129.207 28.5694 126.225 30.7833 122.015 30.9951L106.795 30.9922V0.780628L122.459 0.777606ZM215.344 0.778567L215.345 0.780077V4.85243H199.166C198.812 4.85243 197.954 5.12643 197.653 5.33818C196.971 5.81947 196.814 6.84272 196.76 7.62906C196.395 12.9128 197.034 18.5965 196.755 23.9218C196.899 25.1449 196.958 26.3371 198.329 26.7162C198.584 26.7873 199.226 26.9177 199.46 26.9177H215.344V30.9901L200.198 30.9929C196.077 30.8641 192.825 28.5125 192.539 24.2135C192.182 18.8483 192.807 13.1039 192.535 7.69871C192.775 3.55522 195.612 1.01991 199.68 0.775545L215.344 0.778567ZM102.428 4.74116L102.317 4.85229H85.8422V13.8116H102.317L102.428 13.9228V17.8841H85.8422V26.9175H102.428V30.9898H81.5476V0.779803H102.428V4.74116ZM152.518 0.779803C156.544 1.08931 159.056 3.678 159.297 7.70008C159.524 11.4867 159.161 15.5992 155.219 17.2518C152.245 18.4987 148.543 17.5538 145.42 17.8928C144.351 18.0085 144.451 18.703 144.677 19.5811C149.23 23.3588 154.05 26.839 158.694 30.5161C158.871 30.6552 159.09 30.8106 159.22 30.9898H152.371C149.186 28.3762 145.667 26.0096 142.525 23.3618C138.494 19.9631 140.299 14.1107 145.556 13.8086C147.798 13.6798 150.219 13.9789 152.444 13.8101C153.243 13.7494 154.247 13.5228 154.658 12.7661C155.262 11.6508 155.232 7.10614 154.669 5.95995C154.44 5.49349 154.121 5.23726 153.633 5.07141C153.468 5.01513 152.873 4.85233 152.741 4.85229H138.192V30.9898H133.971V0.779803H152.518ZM223.787 13.8116H231.673L239.151 0.779803H244L235.193 16.2195L244 30.9898H239.113L231.228 17.8841H223.787V30.9898H219.492V0.779803H223.787V13.8116ZM181.324 4.8479C177.817 4.608 174.043 5.03596 170.508 4.8479C168.325 5.00931 167.989 5.98226 167.879 7.99475C167.599 13.1112 168.098 18.481 167.879 23.6241C168.01 24.44 167.961 25.5952 168.575 26.223V26.2244C168.78 26.4332 169.17 26.6376 169.452 26.7176C173.655 27.0627 177.979 27.008 182.189 26.7489C183.834 26.4512 183.891 24.6918 183.953 23.3294C184.19 18.1034 183.828 12.6463 183.874 7.40692C183.673 5.64614 183.156 4.97377 181.324 4.8479ZM60.2209 17.8848V26.9182H60.2224L69.9622 26.9212C71.874 26.8102 72.7892 26.4087 72.9566 24.3622C73.0603 23.1033 73.1327 20.1654 72.6232 19.0696C72.1138 17.9737 70.9484 18.027 69.8866 17.8819L60.2209 17.8848ZM111.015 26.9182H122.604C122.844 26.9182 123.476 26.7864 123.735 26.7168C125.203 26.3214 125.207 25.3174 125.384 23.9965C125.107 18.6712 125.743 12.9876 125.379 7.70378C125.32 6.84339 125.099 5.56234 124.224 5.15657C124.054 5.07808 123.205 4.85298 123.047 4.85298H111.015V26.9182ZM60.2224 13.8124H70.4775C70.7351 13.8124 71.4636 13.6169 71.7259 13.5058C72.4662 13.1874 72.7196 12.6736 72.8646 11.905C73.103 10.6403 73.1327 7.24166 72.6529 6.0851C72.3019 5.23953 71.4933 4.93443 70.6271 4.85298H60.2224V13.8124Z" fill="#1F2753"/>
</svg>
