<svg width="1380" height="1609" viewBox="0 0 1380 1609" fill="none" xmlns="http://www.w3.org/2000/svg">
<path d="M331.597 225.175L181.858 423.777H1204.28L886.233 88.1108L824.176 130.069L680.668 1.39722L413.047 286.713L331.597 225.175Z" fill="white" stroke="#1B2249" stroke-width="2"/>
<path d="M646.806 265.743L769.762 233.116L793.031 422.777L909.344 374.656L954.257 408.561L1011.24 219.618L1072.13 408.561L1145.88 374.656L1203.28 423.479H793.117L793.123 423.523H180.858L332.379 225.461L411.857 286.958L681.8 1.39722L646.806 265.743ZM837.694 195.973L914.98 335.453L817.618 225.725L824.291 130.177L837.694 195.973Z" fill="#28315F"/>
<path d="M17.9304 422.573L18.3404 422.784L18.7505 422.996L19.1605 423.207L19.5705 423.417L19.9805 423.626L20.3906 423.835L20.8006 424.041L21.2106 424.247L21.6206 424.451L22.0307 424.653L22.4407 424.853L22.8507 425.051L23.2607 425.246L23.6707 425.44L24.0808 425.63L24.4908 425.817L24.9008 426L25.3108 426.18L25.7209 426.357L26.1309 426.53L26.5409 426.699L26.9509 426.864L27.361 427.025L27.771 427.181L28.181 427.333L28.591 427.481L29.001 427.623L29.4111 427.76L29.8211 427.893L30.2311 428.02L30.6411 428.141L31.0512 428.257L31.4612 428.368L31.8712 428.473L32.2812 428.572L32.6913 428.664L33.1013 428.752L33.5113 428.833L33.9213 428.908L34.3313 428.976L34.7414 429.038L35.1514 429.094L35.5614 429.143L35.9714 429.186L36.3815 429.223L36.7915 429.252L37.2015 429.276L37.6115 429.292L38.0216 429.302L38.4316 429.305L38.8416 429.302L39.2516 429.292L39.6616 429.276L40.0717 429.252L40.4817 429.223L40.8917 429.186L41.3017 429.143L41.7118 429.094L42.1218 429.038L42.5318 428.976L42.9418 428.908L43.3519 428.833L43.7619 428.752L44.1719 428.664L44.5819 428.572L44.9919 428.473L45.402 428.368L45.812 428.257L46.222 428.141L46.632 428.02L47.0421 427.893L47.4521 427.76L47.8621 427.623L48.2721 427.481L48.6822 427.333L49.0922 427.181L49.5022 427.025L49.9122 426.864L50.3223 426.699L50.7323 426.53L51.1423 426.357L51.5523 426.18L51.9623 426L52.3724 425.817L52.7824 425.63L53.1924 425.44L53.6024 425.246L54.0125 425.051L54.4225 424.853L54.8325 424.653L55.2425 424.451L55.6526 424.247L56.0626 424.041L56.4726 423.835L56.8826 423.626L57.2926 423.417L57.7027 423.207L58.1127 422.996L58.5227 422.784L58.9327 422.573L59.3428 422.362L59.7528 422.15L60.1628 421.939L60.5728 421.729L60.9829 421.52L61.3929 421.311L61.8029 421.105L62.2129 420.899L62.6229 420.695L63.033 420.493L63.443 420.293L63.853 420.095L64.263 419.9L64.6731 419.706L65.0831 419.516L65.4931 419.329L65.9031 419.146L66.3132 418.966L66.7232 418.789L67.1332 418.616L67.5432 418.447L67.9532 418.282L68.3633 418.121L68.7733 417.965L69.1833 417.813L69.5933 417.665L70.0034 417.523L70.4134 417.386L70.8234 417.253L71.2334 417.126L71.6435 417.005L72.0535 416.889L72.4635 416.778L72.8735 416.673L73.2835 416.574L73.6936 416.482L74.1036 416.394L74.5136 416.313L74.9236 416.238L75.3337 416.17L75.7437 416.108L76.1537 416.052L76.5637 416.003L76.9738 415.96L77.3838 415.923L77.7938 415.894L78.2038 415.87L78.6139 415.854L79.0239 415.844L79.4339 415.841L79.8439 415.844L80.2539 415.854L80.664 415.87L81.074 415.894L81.484 415.923L81.894 415.96L82.3041 416.003L82.7141 416.052L83.1241 416.108L83.5341 416.17L83.9442 416.238L84.3542 416.313L84.7642 416.394L85.1742 416.482L85.5842 416.574L85.9943 416.673L86.4043 416.778L86.8143 416.889L87.2243 417.005L87.6344 417.126L88.0444 417.253L88.4544 417.386L88.8644 417.523L89.2745 417.665L89.6845 417.813L90.0945 417.965L90.5045 418.121L90.9145 418.282L91.3246 418.447L91.7346 418.616L92.1446 418.789L92.5546 418.966L92.9647 419.146L93.3747 419.329L93.7847 419.516L94.1947 419.706L94.6048 419.9L95.0148 420.095L95.4248 420.293L95.8348 420.493L96.2448 420.695L96.6549 420.899L97.0649 421.105L97.4749 421.311L97.8849 421.52L98.295 421.729L98.705 421.939L99.115 422.15L99.525 422.362L99.9351 422.573L100.345 422.784L100.755 422.996L101.165 423.207L101.575 423.417L101.985 423.626L102.395 423.835L102.805 424.041L103.215 424.247L103.625 424.451L104.035 424.653L104.445 424.853L104.855 425.051L105.265 425.246L105.675 425.44L106.085 425.63L106.495 425.817L106.905 426L107.315 426.18L107.725 426.357L108.136 426.53L108.546 426.699L108.956 426.864L109.366 427.025L109.776 427.181L110.186 427.333L110.596 427.481L111.006 427.623L111.416 427.76L111.826 427.893L112.236 428.02L112.646 428.141L113.056 428.257L113.466 428.368L113.876 428.473L114.286 428.572L114.696 428.664L115.106 428.752L115.516 428.833L115.926 428.908L116.336 428.976L116.746 429.038L117.156 429.094L117.566 429.143L117.976 429.186L118.386 429.223L118.796 429.252L119.206 429.276L119.616 429.292L120.026 429.302L120.436 429.305L120.846 429.302L121.256 429.292L121.666 429.276L122.076 429.252L122.486 429.223L122.896 429.186L123.306 429.143L123.716 429.094L124.126 429.038L124.536 428.976L124.946 428.908L125.356 428.833L125.767 428.752L126.177 428.664L126.587 428.572L126.997 428.473L127.407 428.368L127.817 428.257L128.227 428.141L128.637 428.02L129.047 427.893L129.457 427.76L129.867 427.623L130.277 427.481L130.687 427.333L131.097 427.181L131.507 427.025L131.917 426.864L132.327 426.699L132.737 426.53L133.147 426.357L133.557 426.18L133.967 426L134.377 425.817L134.787 425.63L135.197 425.44L135.607 425.246L136.017 425.051L136.427 424.853L136.837 424.653L137.247 424.451L137.657 424.247L138.067 424.041L138.477 423.835L138.887 423.626L139.297 423.417L139.707 423.207L140.117 422.996L140.527 422.784L140.937 422.573L141.347 422.362L141.757 422.15L142.167 421.939L142.577 421.729L142.987 421.52L143.398 421.311L143.808 421.105L144.218 420.899L144.628 420.695L145.038 420.493L145.448 420.293L145.858 420.095L146.268 419.9L146.678 419.706L147.088 419.516L147.498 419.329L147.908 419.146L148.318 418.966L148.728 418.789L149.138 418.616L149.548 418.447L149.958 418.282L150.368 418.121L150.778 417.965L151.188 417.813L151.598 417.665L152.008 417.523L152.418 417.386L152.828 417.253L153.238 417.126L153.648 417.005L154.058 416.889L154.468 416.778L154.878 416.673L155.288 416.574L155.698 416.482L156.108 416.394L156.518 416.313L156.928 416.238L157.338 416.17L157.748 416.108L158.158 416.052L158.568 416.003L158.978 415.96L159.388 415.923L159.798 415.894L160.208 415.87L160.618 415.854L161.029 415.844L161.439 415.841L161.849 415.844L162.259 415.854L162.669 415.87L163.079 415.894L163.489 415.923L163.899 415.96L164.309 416.003L164.719 416.052L165.129 416.108L165.539 416.17L165.949 416.238L166.359 416.313L166.769 416.394L167.179 416.482L167.589 416.574L167.999 416.673L168.409 416.778L168.819 416.889L169.229 417.005L169.639 417.126L170.049 417.253L170.459 417.386L170.869 417.523L171.279 417.665L171.689 417.813L172.099 417.965L172.509 418.121L172.919 418.282L173.329 418.447L173.739 418.616L174.149 418.789L174.559 418.966L174.969 419.146L175.379 419.329L175.789 419.516L176.199 419.706L176.609 419.9L177.019 420.095L177.429 420.293L177.839 420.493L178.249 420.695L178.66 420.899L179.07 421.105L179.48 421.311L179.89 421.52L180.3 421.729L180.71 421.939L181.12 422.15L181.53 422.362L181.94 422.573" stroke="#28315F" stroke-width="4" stroke-linecap="round" stroke-linejoin="round"/>
<path d="M1203.28 422.573L1203.69 422.784L1204.1 422.996L1204.51 423.207L1204.92 423.417L1205.33 423.626L1205.74 423.835L1206.15 424.041L1206.56 424.247L1206.97 424.451L1207.38 424.653L1207.79 424.853L1208.2 425.051L1208.61 425.246L1209.02 425.44L1209.43 425.63L1209.84 425.817L1210.25 426L1210.66 426.18L1211.07 426.357L1211.48 426.53L1211.89 426.699L1212.3 426.864L1212.71 427.025L1213.12 427.181L1213.53 427.333L1213.94 427.481L1214.35 427.623L1214.76 427.76L1215.17 427.893L1215.58 428.02L1215.99 428.141L1216.4 428.257L1216.81 428.368L1217.22 428.473L1217.63 428.572L1218.04 428.664L1218.45 428.752L1218.86 428.833L1219.27 428.908L1219.68 428.976L1220.09 429.038L1220.5 429.094L1220.91 429.143L1221.32 429.186L1221.73 429.223L1222.14 429.252L1222.55 429.276L1222.96 429.292L1223.37 429.302L1223.78 429.305L1224.19 429.302L1224.6 429.292L1225.01 429.276L1225.42 429.252L1225.83 429.223L1226.24 429.186L1226.65 429.143L1227.06 429.094L1227.47 429.038L1227.88 428.976L1228.29 428.908L1228.7 428.833L1229.11 428.752L1229.52 428.664L1229.93 428.572L1230.34 428.473L1230.75 428.368L1231.16 428.257L1231.57 428.141L1231.98 428.02L1232.39 427.893L1232.8 427.76L1233.21 427.623L1233.62 427.481L1234.03 427.333L1234.44 427.181L1234.85 427.025L1235.26 426.864L1235.67 426.699L1236.08 426.53L1236.49 426.357L1236.9 426.18L1237.31 426L1237.72 425.817L1238.13 425.63L1238.54 425.44L1238.95 425.246L1239.36 425.051L1239.77 424.853L1240.18 424.653L1240.59 424.451L1241 424.247L1241.41 424.041L1241.82 423.835L1242.23 423.626L1242.64 423.417L1243.05 423.207L1243.46 422.996L1243.87 422.784L1244.28 422.573L1244.69 422.362L1245.1 422.15L1245.51 421.939L1245.92 421.729L1246.33 421.52L1246.74 421.311L1247.15 421.105L1247.56 420.899L1247.97 420.695L1248.38 420.493L1248.79 420.293L1249.2 420.095L1249.61 419.9L1250.02 419.706L1250.43 419.516L1250.84 419.329L1251.25 419.146L1251.66 418.966L1252.07 418.789L1252.48 418.616L1252.89 418.447L1253.3 418.282L1253.71 418.121L1254.12 417.965L1254.53 417.813L1254.94 417.665L1255.35 417.523L1255.76 417.386L1256.17 417.253L1256.58 417.126L1256.99 417.005L1257.4 416.889L1257.81 416.778L1258.22 416.673L1258.63 416.574L1259.04 416.482L1259.45 416.394L1259.86 416.313L1260.27 416.238L1260.68 416.17L1261.09 416.108L1261.5 416.052L1261.91 416.003L1262.32 415.96L1262.73 415.923L1263.14 415.894L1263.55 415.87L1263.96 415.854L1264.37 415.844L1264.78 415.841L1265.19 415.844L1265.6 415.854L1266.01 415.87L1266.42 415.894L1266.83 415.923L1267.24 415.96L1267.65 416.003L1268.06 416.052L1268.47 416.108L1268.88 416.17L1269.29 416.238L1269.7 416.313L1270.11 416.394L1270.52 416.482L1270.93 416.574L1271.34 416.673L1271.75 416.778L1272.16 416.889L1272.57 417.005L1272.98 417.126L1273.39 417.253L1273.8 417.386L1274.21 417.523L1274.62 417.665L1275.03 417.813L1275.44 417.965L1275.85 418.121L1276.26 418.282L1276.67 418.447L1277.08 418.616L1277.49 418.789L1277.9 418.966L1278.31 419.146L1278.72 419.329L1279.13 419.516L1279.54 419.706L1279.95 419.9L1280.36 420.095L1280.77 420.293L1281.18 420.493L1281.59 420.695L1282 420.899L1282.41 421.105L1282.82 421.311L1283.23 421.52L1283.64 421.729L1284.05 421.939L1284.46 422.15L1284.87 422.362L1285.28 422.573L1285.69 422.784L1286.1 422.996L1286.51 423.207L1286.92 423.417L1287.33 423.626L1287.74 423.835L1288.15 424.041L1288.56 424.247L1288.97 424.451L1289.38 424.653L1289.79 424.853L1290.2 425.051L1290.61 425.246L1291.02 425.44L1291.43 425.63L1291.84 425.817L1292.25 426L1292.66 426.18L1293.07 426.357L1293.48 426.53L1293.89 426.699L1294.3 426.864L1294.71 427.025L1295.12 427.181L1295.53 427.333L1295.94 427.481L1296.35 427.623L1296.76 427.76L1297.17 427.893L1297.58 428.02L1297.99 428.141L1298.4 428.257L1298.81 428.368L1299.22 428.473L1299.63 428.572L1300.04 428.664L1300.45 428.752L1300.86 428.833L1301.27 428.908L1301.68 428.976L1302.09 429.038L1302.5 429.094L1302.91 429.143L1303.32 429.186L1303.73 429.223L1304.14 429.252L1304.55 429.276L1304.96 429.292L1305.37 429.302L1305.78 429.305L1306.19 429.302L1306.6 429.292L1307.01 429.276L1307.42 429.252L1307.83 429.223L1308.24 429.186L1308.65 429.143L1309.06 429.094L1309.47 429.038L1309.88 428.976L1310.29 428.908L1310.7 428.833L1311.11 428.752L1311.52 428.664L1311.93 428.572L1312.34 428.473L1312.75 428.368L1313.16 428.257L1313.57 428.141L1313.98 428.02L1314.39 427.893L1314.8 427.76L1315.21 427.623L1315.62 427.481L1316.03 427.333L1316.44 427.181L1316.85 427.025L1317.26 426.864L1317.67 426.699L1318.08 426.53L1318.49 426.357L1318.9 426.18L1319.31 426L1319.72 425.817L1320.13 425.63L1320.54 425.44L1320.95 425.246L1321.36 425.051L1321.77 424.853L1322.18 424.653L1322.59 424.451L1323 424.247L1323.41 424.041L1323.82 423.835L1324.23 423.626L1324.64 423.417L1325.05 423.207L1325.46 422.996L1325.87 422.784L1326.28 422.573L1326.69 422.362L1327.1 422.15L1327.51 421.939L1327.92 421.729L1328.33 421.52L1328.74 421.311L1329.15 421.105L1329.56 420.899L1329.97 420.695L1330.38 420.493L1330.79 420.293L1331.2 420.095L1331.61 419.9L1332.02 419.706L1332.43 419.516L1332.84 419.329L1333.25 419.146L1333.66 418.966L1334.07 418.789L1334.48 418.616L1334.89 418.447L1335.3 418.282L1335.71 418.121L1336.12 417.965L1336.53 417.813L1336.94 417.665L1337.35 417.523L1337.76 417.386L1338.17 417.253L1338.58 417.126L1338.99 417.005L1339.4 416.889L1339.81 416.778L1340.22 416.673L1340.63 416.574L1341.04 416.482L1341.45 416.394L1341.86 416.313L1342.27 416.238L1342.68 416.17L1343.09 416.108L1343.5 416.052L1343.91 416.003L1344.32 415.96L1344.73 415.923L1345.14 415.894L1345.55 415.87L1345.96 415.854L1346.37 415.844L1346.78 415.841L1347.19 415.844L1347.6 415.854L1348.01 415.87L1348.42 415.894L1348.83 415.923L1349.24 415.96L1349.65 416.003L1350.06 416.052L1350.47 416.108L1350.88 416.17L1351.29 416.238L1351.7 416.313L1352.11 416.394L1352.52 416.482L1352.93 416.574L1353.34 416.673L1353.75 416.778L1354.16 416.889L1354.57 417.005L1354.98 417.126L1355.39 417.253L1355.8 417.386L1356.21 417.523L1356.62 417.665L1357.03 417.813L1357.44 417.965L1357.85 418.121L1358.26 418.282L1358.67 418.447L1359.08 418.616L1359.49 418.789L1359.9 418.966L1360.31 419.146L1360.72 419.329L1361.13 419.516L1361.54 419.706L1361.95 419.9L1362.36 420.095L1362.77 420.293L1363.18 420.493L1363.59 420.695L1364 420.899L1364.41 421.105L1364.82 421.311L1365.23 421.52L1365.64 421.729L1366.05 421.939L1366.46 422.15L1366.87 422.362L1367.28 422.573" stroke="#28315F" stroke-width="4" stroke-linecap="round" stroke-linejoin="round"/>
<path d="M1379.11 629.147L1203.61 424.397H180.952L0.607666 640.977L125.968 857.557L362.821 1166.96L426.263 1348.96L713.87 1607.4L950.722 1254.32L1086.07 1166.96V904.877L1379.11 629.147Z" fill="#FEFBF5" stroke="#CECCC9"/>
<path fill-rule="evenodd" clip-rule="evenodd" d="M480.608 754.727L807.608 425.762L533.608 943.552L480.608 754.727Z" fill="#EDEAE4"/>
<path fill-rule="evenodd" clip-rule="evenodd" d="M480.608 754.727L533.608 943.552L5.85767 642.342L480.608 754.727Z" fill="#F9F5EB"/>
<path fill-rule="evenodd" clip-rule="evenodd" d="M1083.36 904.422L536.108 938.092L1171.11 600.482L1377.86 629.147L1083.36 904.422Z" fill="#EDEAE4"/>
<path d="M1170.36 600.937L1081.36 425.307H1203.36L1376.86 628.692L1170.36 600.937Z" fill="#F9F5EB"/>
<path d="M737.608 927.172L1085.36 1166.5L952.858 1252.04L737.608 927.172Z" fill="#F9F5EB"/>
<path d="M950.858 1253.41L363.858 1167.41L427.858 1347.14L950.858 1253.41Z" fill="#F9F5EB"/>
</svg>
