<svg width="230" height="47" viewBox="0 0 230 47" fill="none" xmlns="http://www.w3.org/2000/svg">
<g clip-path="url(#clip0_5634_37095)">
<path d="M20.5598 40.88C20.5598 42.0799 20.7998 42.24 22.4798 42.24C24.2398 42.24 24.3998 42.0799 24.3998 40.88C24.3998 39.9999 24.3198 39.7599 23.5998 39.6799C24.1598 39.6 24.3198 39.28 24.3198 38.56C24.3198 37.36 24.1598 37.2 22.4798 37.2C20.7998 37.2 20.6398 37.36 20.6398 38.56C20.6398 39.28 20.7198 39.6 21.3598 39.6799C20.6398 39.6799 20.5598 39.9999 20.5598 40.88ZM22.4798 37.92C23.2798 37.92 23.3598 38 23.3598 38.64C23.3598 39.28 23.2798 39.36 22.4798 39.36C21.6798 39.36 21.5998 39.28 21.5998 38.64C21.5998 37.92 21.6798 37.92 22.4798 37.92ZM22.4798 40C23.3598 40 23.4398 40.08 23.4398 40.8C23.4398 41.44 23.3598 41.52 22.4798 41.52C21.5998 41.52 21.5198 41.44 21.5198 40.8C21.5198 40.08 21.5998 40 22.4798 40Z" fill="#1F2753"/>
<path d="M12.24 40.88C12.24 42.0799 12.48 42.24 14.16 42.24C15.92 42.24 16.08 42.0799 16.08 40.88C16.08 39.9999 16 39.7599 15.28 39.6799C15.84 39.6 16 39.28 16 38.56C16 37.36 15.84 37.2 14.16 37.2C12.48 37.2 12.32 37.36 12.32 38.56C12.32 39.28 12.4 39.6 13.04 39.6799C12.32 39.6799 12.24 39.9999 12.24 40.88ZM14.24 37.92C15.04 37.92 15.12 38 15.12 38.64C15.12 39.28 15.04 39.36 14.24 39.36C13.44 39.36 13.36 39.28 13.36 38.64C13.28 37.92 13.44 37.92 14.24 37.92ZM14.24 40C15.12 40 15.2 40.08 15.2 40.8C15.2 41.44 15.12 41.52 14.24 41.52C13.36 41.52 13.28 41.44 13.28 40.8C13.2 40.08 13.28 40 14.24 40Z" fill="#1F2753"/>
<path d="M30.7198 41.52C29.8398 41.52 29.7598 41.44 29.7598 40.8L28.7998 40.88C28.7998 42.0799 28.9598 42.24 30.7198 42.32C32.3998 42.32 32.6398 42.16 32.6398 40.8C32.6398 39.44 32.3998 39.2799 30.8798 39.2799C30.3998 39.2799 30.1598 39.28 29.9198 39.36V38H31.6798L31.7598 38.56H32.5598V37.2H29.1198L29.0398 40C29.5998 39.92 29.9998 39.92 30.7198 39.92C31.6798 39.92 31.7598 40.08 31.7598 40.8C31.6798 41.44 31.5198 41.52 30.7198 41.52Z" fill="#1F2753"/>
<path d="M28.0798 5.76013C28.1598 5.68013 28.2398 5.52013 28.3198 5.36013C28.2398 5.20013 28.1598 4.96013 28.0798 4.88013C27.9998 4.88013 27.6798 5.28013 27.5198 5.76013C27.7598 5.68013 27.9998 5.68013 28.0798 5.76013Z" fill="#1F2753"/>
<path d="M6.15996 38.0799V41.44L5.03996 41.52V42.16H8.15996V41.52L7.11996 41.44V37.2H6.71996L4.95996 37.52L5.03996 38.16L6.15996 38.0799Z" fill="#1F2753"/>
<path d="M0 0V46.48H37.52V0H0ZM1.44 1.52H36.16V30.24L35.68 29.6L34.4 28.48L32.4 27.36L31.44 27.2L30.56 27.04C30.56 27.04 29.68 26.4 29.36 26.4C29.04 26.4 28.4 26.8 28.4 26.8H27.68L27.44 26.96C27.36 26.64 27.28 26.32 27.28 26.32C27.2 25.92 27.12 25.44 27.12 25.36C27.12 25.2 27.04 24.64 27.04 24.32C27.04 24.08 26.8 23.28 26.8 23.28L26.72 20.16C26.4 20.48 26.08 20.72 25.76 20.88C25.76 20.88 25.04 23.52 25.28 25.28C25.36 25.44 25.44 25.6 25.44 25.76C25.52 26 25.84 26.64 26 27.12C26.08 27.28 26.16 27.52 26.16 27.68L26.08 27.76C26 27.68 26 27.52 25.92 27.44C25.76 27.2 25.04 27.28 24.88 27.2C24.8 27.12 24.72 26.88 24.72 26.72V26.64C24.72 26.56 24.72 26.4 24.72 26.4V25.68C24.72 25.68 24.8 21.36 25.2 19.76V19.68C25.2 19.68 26.4 19.68 27.68 18.16C28.08 17.6 28.56 16.72 28.72 16.32C28.72 16.24 28.8 16.08 28.8 16C28.72 15.68 28.48 15.36 28.32 15.2C28.32 15.2 28.72 15.2 28.96 15.28C28.96 15.12 28.96 14.88 28.88 14.72C28.72 14.24 29.2 13.6 29.44 13.36C29.68 13.2 29.68 12.72 29.68 12.64C29.68 12.56 29.6 12.4 29.6 12.16C29.6 12.16 29.36 11.28 29.44 10.8C29.44 10.8 29.44 11.52 30.08 11.6C30.16 11.6 30.16 11.6 30.24 11.6C30.48 11.6 30.8 11.68 30.96 11.68C31.36 11.76 31.52 11.12 31.52 11.12C31.52 11.12 31.76 10.96 32 10.64C32.24 10.4 32.4 10.32 32.32 10C32.24 9.68 30.56 8.4 30.56 8.4C30.24 8.16 29.92 7.92 29.76 7.84C29.76 7.84 30 7.68 30.16 7.76C30.32 7.84 30.16 7.92 30.56 8.24C30.56 8.08 30.56 7.84 30.48 7.6C30.4 7.36 29.68 6.72 29.36 6.4L29.12 6.96L29.28 5.36C29.28 4.96 29.28 4.56 29.2 4.4C29.12 4.16 28.88 4.4 28.64 4.72C28.4 5.12 28.08 5.84 28.08 5.84C28.08 5.84 27.68 5.84 27.28 5.84C27.12 5.84 26.96 5.84 26.72 5.84H26.64C26.4 5.92 26.16 6 26 6.16C25.52 6.56 24.4 8.08 24.4 8.08C24.4 8.08 23.28 9.28 23.04 9.44C22.8 9.6 22.48 10 21.84 10.16C21.84 10.16 21.76 10.4 21.68 10.64C21.68 10.88 21.68 11.12 21.84 11.36C21.84 11.36 21.6 11.2 21.36 11.04C20.56 11.6 18.56 12.72 18.32 12.88C18.08 13.04 17.12 13.76 16.32 13.84C16.32 13.84 11.28 14.88 11.04 15.36C9.92 15.84 9.52 16.56 9.36 17.04C9.12 17.52 8.56 19.28 7.84 20.4C7.2 21.6 5.04 22.8 4.72 23.04C4.4 23.28 4 23.2 4.56 23.84C5.12 24.4 6.56 24.24 7.6 23.84C7.68 23.84 7.68 23.84 7.76 23.76C7.84 23.76 7.84 23.68 7.92 23.68C8.08 23.6 8.16 23.52 8.32 23.44C8.88 22.88 9.28 21.84 9.28 21.84C9.28 21.76 9.2 21.68 9.2 21.6C9.04 21.28 8.96 20.64 9.44 20C9.36 20.72 9.52 21.44 10.16 21.92C10.4 22.08 10.48 22.4 10.48 22.4C10.72 23.2 10.08 24.16 9.52 24.64C9.12 25.04 9.12 25.04 9.12 25.44C9.12 25.44 10.32 28.96 9.92 30.24L9.2 30.48C9.2 30.48 9.52 28.24 9.12 26.56C9.12 26.96 9.04 27.36 9.04 27.76C9.04 27.76 8.8 29.6 8.56 30C8.48 30.16 8.48 30.4 8.56 30.64L7.68 30.88C7.68 30.88 6.48 31.28 6.32 31.36C6.16 31.44 5.44 31.36 5.44 31.36C5.44 31.36 4.32 31.36 4.08 31.44C3.84 31.44 2.96 31.92 2.96 31.92H2.24L1.28 32.24V1.52H1.44ZM23.36 28.32L22.64 28.64L20.56 29.2L18.88 29.44C18.88 29.44 17.68 29.52 17.28 29.28C16.96 29.04 15.76 29.2 15.68 29.2C15.6 29.2 14.72 29.44 14.16 29.6C14 29.68 13.76 29.76 13.6 29.76C13.28 29.52 12.64 29.12 11.68 29.04C11.68 29.04 11.6 28.88 11.52 28.64C11.52 28.4 11.36 26.24 11.44 25.76C11.52 25.28 12.72 24.48 13.76 23.6C14.8 22.72 15.04 21.6 15.04 21.6C15.04 21.6 15.36 21.12 15.68 20.88C16 20.72 16.96 20.88 17.6 21.12C18.24 21.36 21.92 21.2 21.92 21.2C21.92 21.76 22.48 24.32 22.64 24.96C22.72 25.36 22.96 26.32 23.12 26.96C23.28 27.52 23.36 28.16 23.36 28.32ZM36.16 45.04H1.44V34.24H36.16V45.04Z" fill="#1F2753"/>
<path d="M189.28 20.16H186.56L186.32 16.8H183.52L182.64 16.88V30L184.8 30.16V32.72H176.96V30.16L179.12 30V16.88L178.24 16.8H175.44L175.2 20.16H172.48V14.24H189.28V20.16Z" fill="#1F2753"/>
<path d="M198 28.7998L200.8 28.6398C200.8 31.9198 200 32.8798 195.36 32.8798C190.56 32.8798 189.6 31.7598 189.6 26.1598C189.6 20.5598 190.48 19.5198 195.28 19.5198C200.08 19.5198 200.8 20.4798 200.8 26.3998C200.8 26.9598 200.64 27.1198 200.08 27.1198H192.56C192.64 30.2398 193.04 30.6398 195.28 30.6398C197.6 30.6398 198 30.2398 198 28.7998ZM192.56 25.1998H197.92C197.84 22.1598 197.36 21.7598 195.28 21.7598C193.12 21.7598 192.64 22.1598 192.56 25.1998Z" fill="#1F2753"/>
<path d="M213.6 23.9198L210.72 24.0798C210.72 22.3998 210.32 21.9198 208.08 21.9198C205.68 21.9198 205.36 22.4798 205.36 26.2398C205.36 29.9998 205.68 30.5598 208.08 30.5598C210.32 30.5598 210.72 30.1598 210.72 28.4798L213.6 28.3198C213.6 31.9998 212.88 32.8798 208.08 32.8798C203.28 32.8798 202.32 31.7598 202.32 26.1598C202.32 20.5598 203.2 19.5198 208.08 19.5198C212.8 19.5198 213.6 20.3998 213.6 23.9198Z" fill="#1F2753"/>
<path d="M229.92 32.6397H223.12V30.4797L224.96 30.3197V24.1597C224.96 22.4797 224.48 21.9997 222.8 21.9997C221.76 21.9997 221.04 22.2397 219.6 22.9597V30.2397L221.44 30.3997V32.5597H214.64V30.3997L216.48 30.2397V16.7997L214.64 16.7197V14.4797H219.6V21.3597C220.8 20.2397 222.32 19.4397 224.4 19.4397C227.12 19.4397 228.08 20.3197 228.08 23.3597V30.3197L229.92 30.4797V32.6397Z" fill="#1F2753"/>
<path d="M75.0398 32.6399H67.4398V30.0799L69.3598 29.9199V17.4399L64.5598 32.7199H61.0398L56.1598 17.5999V29.9999L58.1598 30.1599V32.7199H50.5598V30.1599L52.7198 29.9999V16.8799L50.6398 16.7199V14.1599H58.7198L62.3998 26.2399C62.6398 26.9599 62.7998 27.5999 62.9598 28.3199C63.1198 27.5999 63.2798 26.9599 63.5198 26.2399L67.1198 14.1599H74.9598V16.7199L72.7998 16.8799V29.9999L74.9598 30.1599V32.6399H75.0398Z" fill="#1F2753"/>
<path d="M83.5998 32.6399H76.7998V30.4799L78.6398 30.3199V21.9999L76.7998 21.9199V19.6799H81.7598V30.3199L83.5998 30.4799V32.6399Z" fill="#1F2753"/>
<path d="M96.1599 23.9198L93.2799 24.0798C93.2799 22.3998 92.8799 21.9198 90.6399 21.9198C88.2399 21.9198 87.9199 22.4798 87.9199 26.2398C87.9199 29.9998 88.2399 30.5598 90.6399 30.5598C92.8799 30.5598 93.2799 30.1598 93.2799 28.4798L96.1599 28.3198C96.1599 31.9998 95.4399 32.8798 90.6399 32.8798C85.8399 32.8798 84.8799 31.7598 84.8799 26.1598C84.8799 20.5598 85.7599 19.5198 90.6399 19.5198C95.3599 19.5198 96.1599 20.3998 96.1599 23.9198Z" fill="#1F2753"/>
<path d="M113.2 32.64H106.32V30.4L108.16 30.24V24C108.16 22.32 107.68 21.84 106 21.84C104.96 21.84 104.16 22.08 102.72 22.8V30.24L104.56 30.4V32.64H97.6797V30.4L99.5197 30.24V16.56L97.6797 16.48V14.24H102.72V21.2C103.92 20.08 105.44 19.28 107.6 19.28C110.32 19.28 111.36 20.16 111.36 23.28V30.32L113.2 30.48V32.64Z" fill="#1F2753"/>
<path d="M121.52 32.6399H114.72V30.4799L116.56 30.3199V21.9999L114.72 21.9199V19.6799H119.68V30.3199L121.52 30.4799V32.6399Z" fill="#1F2753"/>
<path d="M134.88 21.9999V32.3199C134.88 36.6399 133.84 37.5999 128.88 37.5999C124.32 37.5999 123.44 36.7199 123.44 33.5199L126.24 33.3599C126.24 34.7999 126.64 35.2799 128.8 35.2799C131.28 35.2799 131.68 34.5599 131.68 32.2399V30.3199C130.32 31.8399 129.44 32.2399 127.52 32.2399C124.16 32.2399 122.96 31.1999 122.96 25.8399C122.96 20.5599 124.16 19.4399 127.52 19.4399C129.52 19.4399 130.48 19.7599 131.68 21.1199V19.6799H134.8H136.64V21.8399L134.88 21.9999ZM131.76 28.9599V22.7199C130.88 22.1599 130.16 22.0799 128.64 22.0799C126.4 22.0799 125.92 22.5599 125.92 25.9199C125.92 29.2799 126.4 29.7599 128.64 29.7599C130.16 29.6799 130.88 29.5199 131.76 28.9599Z" fill="#1F2753"/>
<path d="M151.36 32.6398H146.64L146.48 30.7198C145.04 32.2398 143.68 32.7998 141.84 32.7998C139.04 32.7998 137.84 31.1998 137.84 29.0398C137.84 26.7998 138.72 25.0398 144.4 25.0398H146.4V24.3998C146.4 22.3998 146 21.7598 143.76 21.7598C141.68 21.7598 141.28 22.2398 141.28 23.5998L138.4 23.7598C138.4 20.5598 139.36 19.5198 143.84 19.5198C148.4 19.5198 149.44 20.5598 149.44 24.3998V30.3998L151.28 30.4798V32.6398H151.36ZM142.8 30.5598C144.24 30.5598 145.2 30.0798 146.4 28.8798V26.8798H144.8C141.36 26.8798 140.8 27.7598 140.8 28.8798C140.8 29.8398 141.36 30.5598 142.8 30.5598Z" fill="#1F2753"/>
<path d="M168.32 32.6399H161.52V30.4799L163.36 30.3199V24.1599C163.36 22.4799 162.88 21.9999 161.2 21.9999C160.16 21.9999 159.44 22.2399 158 22.9599V30.2399L159.84 30.3999V32.5599H153.04V30.3999L154.88 30.2399V21.9999L153.04 21.8399V19.6799H158V21.3599C159.2 20.2399 160.72 19.4399 162.8 19.4399C165.52 19.4399 166.48 20.3199 166.48 23.3599V30.3199L168.32 30.4799V32.6399Z" fill="#1F2753"/>
<path d="M78.24 16.0799C78.24 14.6399 78.48 14.3999 80.16 14.3999C81.76 14.3999 82 14.6399 82 16.0799C82 17.5199 81.76 17.7599 80.16 17.7599C78.56 17.6799 78.24 17.5199 78.24 16.0799Z" fill="#1F2753"/>
<path d="M116.24 16.0799C116.24 14.6399 116.48 14.3999 118.16 14.3999C119.76 14.3999 120 14.6399 120 16.0799C120 17.5199 119.76 17.7599 118.16 17.7599C116.48 17.6799 116.24 17.5199 116.24 16.0799Z" fill="#1F2753"/>
</g>
<defs>
<clipPath id="clip0_5634_37095">
<rect width="229.92" height="46.48" fill="white"/>
</clipPath>
</defs>
</svg>
