<svg width="138" height="26" viewBox="0 0 138 26" fill="none" xmlns="http://www.w3.org/2000/svg">
<path d="M3.54462 9.31714V0.182685H6.74168L8.32063 8.14271H8.55552L10.1345 0.182685H13.3315V9.31714H11.6612V1.44846H11.4263L9.86044 9.31714H7.01571L5.44981 1.44846H5.21492V9.31714H3.54462ZM15.0519 9.31714V0.182685H16.7744V9.31714H15.0519ZM20.6066 9.31714V1.74859H17.9445V0.182685H24.9911V1.74859H22.3291V9.31714H20.6066ZM29.1694 9.49983C28.4648 9.49983 27.8427 9.37369 27.3034 9.1214C26.764 8.86912 26.3421 8.50809 26.0376 8.03832C25.7331 7.56854 25.5809 7.00308 25.5809 6.34192V5.97654H27.2773V6.34192C27.2773 6.88998 27.4469 7.30321 27.7862 7.58159C28.1255 7.85128 28.5865 7.98612 29.1694 7.98612C29.761 7.98612 30.2003 7.86868 30.4874 7.63379C30.7832 7.3989 30.9311 7.09877 30.9311 6.73339C30.9311 6.48111 30.8571 6.27667 30.7092 6.12008C30.57 5.96349 30.3612 5.83735 30.0829 5.74165C29.8132 5.63726 29.4826 5.54156 29.0911 5.45457L28.791 5.38932C28.1646 5.25013 27.6253 5.07614 27.1729 4.86736C26.7292 4.64987 26.3856 4.36713 26.142 4.01916C25.9071 3.67118 25.7897 3.2188 25.7897 2.66204C25.7897 2.10527 25.9202 1.63115 26.1811 1.23967C26.4508 0.839496 26.8249 0.535015 27.3034 0.326227C27.7905 0.10874 28.3604 -3.71064e-06 29.0128 -3.71064e-06C29.6653 -3.71064e-06 30.2438 0.11309 30.7484 0.339276C31.2616 0.556763 31.6618 0.887343 31.9489 1.33102C32.2447 1.76599 32.3926 2.31406 32.3926 2.97522V3.36669H30.6962V2.97522C30.6962 2.62724 30.6266 2.34886 30.4874 2.14007C30.3569 1.92258 30.1655 1.76599 29.9132 1.6703C29.6609 1.5659 29.3608 1.51371 29.0128 1.51371C28.4909 1.51371 28.1037 1.61375 27.8514 1.81384C27.6079 2.00523 27.4861 2.27056 27.4861 2.60984C27.4861 2.83603 27.5426 3.02742 27.6557 3.18401C27.7775 3.3406 27.9558 3.47109 28.1907 3.57548C28.4256 3.67988 28.7257 3.77122 29.0911 3.84952L29.3912 3.91476C30.0437 4.05395 30.6092 4.23229 31.0876 4.44978C31.5748 4.66727 31.9532 4.95435 32.2229 5.31103C32.4926 5.66771 32.6275 6.12443 32.6275 6.6812C32.6275 7.23796 32.4839 7.72948 32.1968 8.15576C31.9184 8.57333 31.5183 8.90391 30.9963 9.1475C30.483 9.38238 29.8741 9.49983 29.1694 9.49983ZM37.4354 9.49983C36.6872 9.49983 36.0435 9.36499 35.5041 9.0953C34.9734 8.81692 34.5646 8.42544 34.2775 7.92087C33.9991 7.4076 33.8599 6.80299 33.8599 6.10703V0.182685H35.5824V6.15923C35.5824 6.71599 35.739 7.15532 36.0522 7.4772C36.374 7.79908 36.8351 7.96002 37.4354 7.96002C38.0356 7.96002 38.4924 7.79908 38.8055 7.4772C39.1274 7.15532 39.2884 6.71599 39.2884 6.15923V0.182685H41.0109V6.10703C41.0109 6.80299 40.8673 7.4076 40.5802 7.92087C40.3019 8.42544 39.893 8.81692 39.3536 9.0953C38.8229 9.36499 38.1835 9.49983 37.4354 9.49983ZM42.4185 9.31714V7.80343H43.6191V1.69639H42.4185V0.182685H47.1163C47.673 0.182685 48.1559 0.27838 48.5647 0.469768C48.9823 0.652458 49.3042 0.917792 49.5304 1.26577C49.7653 1.60505 49.8827 2.01393 49.8827 2.4924V2.62289C49.8827 3.04046 49.8044 3.38409 49.6478 3.65378C49.4912 3.91476 49.3042 4.1192 49.0867 4.26709C48.8779 4.40628 48.6778 4.50633 48.4864 4.56722V4.80211C48.6778 4.85431 48.8866 4.95435 49.1128 5.10224C49.339 5.24143 49.5304 5.44587 49.687 5.71555C49.8523 5.98524 49.9349 6.33757 49.9349 6.77254V6.90303C49.9349 7.4076 49.8175 7.84258 49.5826 8.20796C49.3477 8.56463 49.0215 8.83867 48.6039 9.03006C48.195 9.22144 47.7165 9.31714 47.1685 9.31714H42.4185ZM45.3416 7.75123H46.9597C47.3338 7.75123 47.6339 7.65989 47.8601 7.4772C48.095 7.29451 48.2124 7.03353 48.2124 6.69425V6.56375C48.2124 6.22447 48.0993 5.96349 47.8731 5.7808C47.6469 5.59811 47.3425 5.50677 46.9597 5.50677H45.3416V7.75123ZM45.3416 3.94086H46.9336C47.2903 3.94086 47.5817 3.84952 47.8079 3.66683C48.0428 3.48414 48.1602 3.23185 48.1602 2.90997V2.77948C48.1602 2.4489 48.0471 2.19661 47.8209 2.02263C47.5947 1.83994 47.299 1.74859 46.9336 1.74859H45.3416V3.94086ZM51.345 9.31714V0.182685H53.0675V9.31714H51.345ZM57.9567 9.49983C57.252 9.49983 56.63 9.37369 56.0907 9.1214C55.5513 8.86912 55.1294 8.50809 54.8249 8.03832C54.5204 7.56854 54.3682 7.00308 54.3682 6.34192V5.97654H56.0646V6.34192C56.0646 6.88998 56.2342 7.30321 56.5735 7.58159C56.9128 7.85128 57.3738 7.98612 57.9567 7.98612C58.5483 7.98612 58.9876 7.86868 59.2747 7.63379C59.5705 7.3989 59.7183 7.09877 59.7183 6.73339C59.7183 6.48111 59.6444 6.27667 59.4965 6.12008C59.3573 5.96349 59.1485 5.83735 58.8701 5.74165C58.6005 5.63726 58.2699 5.54156 57.8784 5.45457L57.5783 5.38932C56.9519 5.25013 56.4125 5.07614 55.9602 4.86736C55.5165 4.64987 55.1729 4.36713 54.9293 4.01916C54.6944 3.67118 54.577 3.2188 54.577 2.66204C54.577 2.10527 54.7074 1.63115 54.9684 1.23967C55.2381 0.839496 55.6122 0.535015 56.0907 0.326227C56.5778 0.10874 57.1476 -3.71064e-06 57.8001 -3.71064e-06C58.4526 -3.71064e-06 59.0311 0.11309 59.5357 0.339276C60.0489 0.556763 60.4491 0.887343 60.7362 1.33102C61.032 1.76599 61.1799 2.31406 61.1799 2.97522V3.36669H59.4835V2.97522C59.4835 2.62724 59.4139 2.34886 59.2747 2.14007C59.1442 1.92258 58.9528 1.76599 58.7005 1.6703C58.4482 1.5659 58.1481 1.51371 57.8001 1.51371C57.2781 1.51371 56.891 1.61375 56.6387 1.81384C56.3951 2.00523 56.2734 2.27056 56.2734 2.60984C56.2734 2.83603 56.3299 3.02742 56.443 3.18401C56.5648 3.3406 56.7431 3.47109 56.978 3.57548C57.2129 3.67988 57.513 3.77122 57.8784 3.84952L58.1785 3.91476C58.831 4.05395 59.3965 4.23229 59.8749 4.44978C60.3621 4.66727 60.7405 4.95435 61.0102 5.31103C61.2799 5.66771 61.4147 6.12443 61.4147 6.6812C61.4147 7.23796 61.2712 7.72948 60.9841 8.15576C60.7057 8.57333 60.3056 8.90391 59.7836 9.1475C59.2703 9.38238 58.6614 9.49983 57.9567 9.49983ZM62.6994 9.31714V0.182685H64.4219V3.95391H67.8147V0.182685H69.5372V9.31714H67.8147V5.51982H64.4219V9.31714H62.6994ZM71.2629 9.31714V0.182685H72.9854V9.31714H71.2629ZM78.0169 9.31714V0.182685H83.8891V1.74859H79.7394V3.92781H83.5237V5.49372H79.7394V7.75123H83.9674V9.31714H78.0169ZM85.2424 9.31714V0.182685H86.9649V7.75123H91.1407V9.31714H85.2424ZM92.315 9.31714V0.182685H98.1871V1.74859H94.0375V3.92781H97.8218V5.49372H94.0375V7.75123H98.2654V9.31714H92.315ZM103.012 9.49983C101.881 9.49983 100.985 9.18665 100.323 8.56028C99.6623 7.92522 99.3317 7.02048 99.3317 5.84605V3.65378C99.3317 2.47935 99.6623 1.57895 100.323 0.952589C100.985 0.317527 101.881 -3.71064e-06 103.012 -3.71064e-06C104.134 -3.71064e-06 104.999 0.308828 105.608 0.926491C106.226 1.53545 106.535 2.37495 106.535 3.44499V3.52329H104.838V3.39279C104.838 2.85343 104.686 2.40975 104.382 2.06177C104.086 1.71379 103.629 1.5398 103.012 1.5398C102.403 1.5398 101.924 1.72684 101.576 2.10092C101.228 2.475 101.054 2.98392 101.054 3.62768V5.87215C101.054 6.50721 101.228 7.01613 101.576 7.3989C101.924 7.77298 102.403 7.96002 103.012 7.96002C103.629 7.96002 104.086 7.78603 104.382 7.43805C104.686 7.08137 104.838 6.6377 104.838 6.10703V5.87215H106.535V6.05483C106.535 7.12487 106.226 7.96872 105.608 8.58638C104.999 9.19535 104.134 9.49983 103.012 9.49983ZM109.874 9.31714V1.74859H107.212V0.182685H114.258V1.74859H111.596V9.31714H109.874ZM115.431 9.31714V0.182685H119.398C119.973 0.182685 120.473 0.282729 120.899 0.482817C121.325 0.682905 121.656 0.965638 121.891 1.33102C122.126 1.69639 122.243 2.12702 122.243 2.62289V2.77948C122.243 3.32755 122.113 3.77122 121.852 4.1105C121.591 4.44978 121.269 4.69772 120.886 4.85431V5.08919C121.234 5.10659 121.504 5.22838 121.695 5.45457C121.886 5.67206 121.982 5.96349 121.982 6.32887V9.31714H120.26V6.5768C120.26 6.36802 120.203 6.19838 120.09 6.06788C119.986 5.93739 119.807 5.87215 119.555 5.87215H117.154V9.31714H115.431ZM117.154 4.30624H119.216C119.625 4.30624 119.942 4.1975 120.168 3.98001C120.403 3.75382 120.521 3.45804 120.521 3.09266V2.96217C120.521 2.59679 120.408 2.30536 120.181 2.08787C119.955 1.86168 119.633 1.74859 119.216 1.74859H117.154V4.30624ZM123.676 9.31714V0.182685H125.399V9.31714H123.676ZM130.588 9.49983C129.457 9.49983 128.561 9.18665 127.9 8.56028C127.239 7.92522 126.908 7.02048 126.908 5.84605V3.65378C126.908 2.47935 127.239 1.57895 127.9 0.952589C128.561 0.317527 129.457 -3.71064e-06 130.588 -3.71064e-06C131.71 -3.71064e-06 132.576 0.308828 133.185 0.926491C133.803 1.53545 134.112 2.37495 134.112 3.44499V3.52329H132.415V3.39279C132.415 2.85343 132.263 2.40975 131.958 2.06177C131.663 1.71379 131.206 1.5398 130.588 1.5398C129.979 1.5398 129.501 1.72684 129.153 2.10092C128.805 2.475 128.631 2.98392 128.631 3.62768V5.87215C128.631 6.50721 128.805 7.01613 129.153 7.3989C129.501 7.77298 129.979 7.96002 130.588 7.96002C131.206 7.96002 131.663 7.78603 131.958 7.43805C132.263 7.08137 132.415 6.6377 132.415 6.10703V5.87215H134.112V6.05483C134.112 7.12487 133.803 7.96872 133.185 8.58638C132.576 9.19535 131.71 9.49983 130.588 9.49983ZM2.26601e-05 25.3171L2.40108 16.1827H5.4024L7.80346 25.3171H6.02876L5.53289 23.3076H2.27059L1.77472 25.3171H2.26601e-05ZM2.67511 21.7156H5.12837L4.01918 17.2658H3.7843L2.67511 21.7156ZM12.2927 25.4998C11.5445 25.4998 10.9008 25.365 10.3614 25.0953C9.83074 24.8169 9.42186 24.4254 9.13478 23.9209C8.8564 23.4076 8.71721 22.803 8.71721 22.107V16.1827H10.4397V22.1592C10.4397 22.716 10.5963 23.1553 10.9095 23.4772C11.2314 23.7991 11.6924 23.96 12.2927 23.96C12.893 23.96 13.3497 23.7991 13.6629 23.4772C13.9847 23.1553 14.1457 22.716 14.1457 22.1592V16.1827H15.8682V22.107C15.8682 22.803 15.7246 23.4076 15.4376 23.9209C15.1592 24.4254 14.7503 24.8169 14.2109 25.0953C13.6803 25.365 13.0408 25.4998 12.2927 25.4998ZM19.6508 25.3171V17.7486H16.9888V16.1827H24.0354V17.7486H21.3733V25.3171H19.6508ZM28.3882 25.4998C27.2399 25.4998 26.3264 25.1866 25.6479 24.5603C24.9693 23.9252 24.63 23.0205 24.63 21.846V19.6538C24.63 18.4793 24.9693 17.579 25.6479 16.9526C26.3264 16.3175 27.2399 16 28.3882 16C29.5365 16 30.45 16.3175 31.1285 16.9526C31.8071 17.579 32.1464 18.4793 32.1464 19.6538V21.846C32.1464 23.0205 31.8071 23.9252 31.1285 24.5603C30.45 25.1866 29.5365 25.4998 28.3882 25.4998ZM28.3882 23.96C29.032 23.96 29.5322 23.773 29.8889 23.3989C30.2455 23.0248 30.4239 22.5246 30.4239 21.8982V19.6016C30.4239 18.9752 30.2455 18.475 29.8889 18.1009C29.5322 17.7268 29.032 17.5398 28.3882 17.5398C27.7531 17.5398 27.2529 17.7268 26.8875 18.1009C26.5309 18.475 26.3525 18.9752 26.3525 19.6016V21.8982C26.3525 22.5246 26.5309 23.0248 26.8875 23.3989C27.2529 23.773 27.7531 23.96 28.3882 23.96ZM33.6572 25.3171V16.1827H36.8543L38.4332 24.1427H38.6681L40.2471 16.1827H43.4441V25.3171H41.7738V17.4485H41.5389L39.973 25.3171H37.1283L35.5624 17.4485H35.3275V25.3171H33.6572ZM48.7139 25.4998C47.5655 25.4998 46.6521 25.1866 45.9735 24.5603C45.295 23.9252 44.9557 23.0205 44.9557 21.846V19.6538C44.9557 18.4793 45.295 17.579 45.9735 16.9526C46.6521 16.3175 47.5655 16 48.7139 16C49.8622 16 50.7757 16.3175 51.4542 16.9526C52.1328 17.579 52.472 18.4793 52.472 19.6538V21.846C52.472 23.0205 52.1328 23.9252 51.4542 24.5603C50.7757 25.1866 49.8622 25.4998 48.7139 25.4998ZM48.7139 23.96C49.3576 23.96 49.8579 23.773 50.2145 23.3989C50.5712 23.0248 50.7496 22.5246 50.7496 21.8982V19.6016C50.7496 18.9752 50.5712 18.475 50.2145 18.1009C49.8579 17.7268 49.3576 17.5398 48.7139 17.5398C48.0788 17.5398 47.5786 17.7268 47.2132 18.1009C46.8565 18.475 46.6782 18.9752 46.6782 19.6016V21.8982C46.6782 22.5246 46.8565 23.0248 47.2132 23.3989C47.5786 23.773 48.0788 23.96 48.7139 23.96ZM55.7273 25.3171V17.7486H53.0653V16.1827H60.1119V17.7486H57.4498V25.3171H55.7273ZM61.2849 25.3171V16.1827H63.0074V25.3171H61.2849ZM66.422 25.3171L64.0992 16.1827H65.8739L67.8052 24.208H67.9879L69.9192 16.1827H71.6939L69.3711 25.3171H66.422ZM72.7921 25.3171V16.1827H78.6643V17.7486H74.5146V19.9278H78.2989V21.4937H74.5146V23.7512H78.7426V25.3171H72.7921ZM82.5516 25.3171L84.9527 16.1827H87.954L90.3551 25.3171H88.5804L88.0845 23.3076H84.8222L84.3263 25.3171H82.5516ZM85.2267 21.7156H87.68L86.5708 17.2658H86.3359L85.2267 21.7156ZM91.4484 25.3171V16.1827H94.6455L96.2245 24.1427H96.4593L98.0383 16.1827H101.235V25.3171H99.5651V17.4485H99.3302L97.7643 25.3171H94.9195L93.3536 17.4485H93.1187V25.3171H91.4484ZM102.956 25.3171V16.1827H108.828V17.7486H104.678V19.9278H108.462V21.4937H104.678V23.7512H108.906V25.3171H102.956ZM110.181 25.3171V16.1827H114.148C114.722 16.1827 115.223 16.2827 115.649 16.4828C116.075 16.6829 116.406 16.9656 116.641 17.331C116.875 17.6964 116.993 18.127 116.993 18.6229V18.7795C116.993 19.3275 116.862 19.7712 116.601 20.1105C116.34 20.4498 116.019 20.6977 115.636 20.8543V21.0892C115.984 21.1066 116.253 21.2284 116.445 21.4546C116.636 21.6721 116.732 21.9635 116.732 22.3289V25.3171H115.009V22.5768C115.009 22.368 114.953 22.1984 114.84 22.0679C114.735 21.9374 114.557 21.8721 114.305 21.8721H111.904V25.3171H110.181ZM111.904 20.3062H113.965C114.374 20.3062 114.692 20.1975 114.918 19.98C115.153 19.7538 115.27 19.458 115.27 19.0927V18.9622C115.27 18.5968 115.157 18.3054 114.931 18.0879C114.705 17.8617 114.383 17.7486 113.965 17.7486H111.904V20.3062ZM118.426 25.3171V16.1827H120.149V25.3171H118.426ZM125.338 25.4998C124.207 25.4998 123.311 25.1866 122.65 24.5603C121.989 23.9252 121.658 23.0205 121.658 21.846V19.6538C121.658 18.4793 121.989 17.579 122.65 16.9526C123.311 16.3175 124.207 16 125.338 16C126.46 16 127.326 16.3088 127.935 16.9265C128.552 17.5355 128.861 18.375 128.861 19.445V19.5233H127.165V19.3928C127.165 18.8534 127.013 18.4098 126.708 18.0618C126.412 17.7138 125.956 17.5398 125.338 17.5398C124.729 17.5398 124.251 17.7268 123.903 18.1009C123.555 18.475 123.381 18.9839 123.381 19.6277V21.8721C123.381 22.5072 123.555 23.0161 123.903 23.3989C124.251 23.773 124.729 23.96 125.338 23.96C125.956 23.96 126.412 23.786 126.708 23.4381C127.013 23.0814 127.165 22.6377 127.165 22.107V21.8721H128.861V22.0548C128.861 23.1249 128.552 23.9687 127.935 24.5864C127.326 25.1953 126.46 25.4998 125.338 25.4998ZM129.536 25.3171L131.938 16.1827H134.939L137.34 25.3171H135.565L135.069 23.3076H131.807L131.311 25.3171H129.536ZM132.212 21.7156H134.665L133.556 17.2658H133.321L132.212 21.7156Z" fill="#1F2753"/>
</svg>
