<svg width="171" height="54" viewBox="0 0 171 54" fill="none" xmlns="http://www.w3.org/2000/svg">
<g clip-path="url(#clip0_5634_37048)">
<path d="M73.7578 12.0281H77.2712L88.8741 27.4987C89.504 28.4042 89.9468 29.2013 90.2027 29.8901H90.2618C90.2422 29.3588 90.2323 28.473 90.2323 27.2331V12.0281H92.8305V32.9902H89.4941L77.714 17.3129C77.0448 16.3485 76.602 15.5808 76.3854 15.01H76.3264C76.3658 15.9942 76.3854 16.8504 76.3854 17.5787V32.9902H73.7578V12.0281Z" fill="#1F2753"/>
<path d="M108.459 14.5672H108.518L100.517 32.9902H97.4762L107.042 12.0281H109.965L119.531 32.9902H116.49L108.459 14.5672ZM108.459 14.5672L109.994 17.8148C109.325 16.5354 108.833 15.4528 108.518 14.5672H108.459C108.282 15.0985 108.085 15.6005 107.869 16.0728C107.672 16.5255 107.386 17.1062 107.012 17.8148L108.518 14.5672H108.459Z" fill="#1F2753"/>
<path d="M137.144 14.449H129.143V32.9902H126.25V14.449H118.249V12.0281H137.144V14.449Z" fill="#1F2753"/>
<path d="M141.49 32.9902V12.0281H144.382V32.9902H141.49Z" fill="#1F2753"/>
<path d="M157.654 22.0072L149.447 12.0281H153.048L158.687 19.0843C159.061 19.5961 159.327 19.9897 159.485 20.2653H159.543C159.623 20.0881 159.721 19.9111 159.839 19.7338C159.977 19.5568 160.144 19.3501 160.341 19.1138L165.92 12.0281H169.405L161.286 22.1253L170.172 32.9902H166.511L160.37 25.2253C160.134 24.9104 159.948 24.6545 159.809 24.4577C159.671 24.2609 159.553 24.0542 159.456 23.8377H159.396C159.219 24.192 158.904 24.6545 158.451 25.2253L152.251 32.9902H148.797L157.654 22.0072Z" fill="#1F2753"/>
<path d="M73.7675 39.719H75.2957L80.343 46.4487C80.6169 46.8425 80.8096 47.1893 80.9209 47.489H80.9466C80.9381 47.2578 80.9337 46.8725 80.9337 46.3331V39.719H82.0639V48.8374H80.6127L75.4883 42.0179C75.1973 41.5984 75.0046 41.2644 74.9105 41.0161H74.8848C74.9019 41.4442 74.9105 41.8167 74.9105 42.1335V48.8374H73.7675V39.719ZM91.0712 45.9606H85.1379C85.1549 46.6028 85.3862 47.1122 85.8313 47.489C86.2851 47.8657 86.8974 48.054 87.6679 48.054C88.2416 48.054 88.7253 47.947 89.1192 47.7329C89.5216 47.5189 89.8298 47.2022 90.0438 46.7826L90.9941 47.2192C90.3691 48.4265 89.2433 49.0301 87.6165 49.0301C86.4863 49.0301 85.5959 48.739 84.9452 48.1568C84.3031 47.5746 83.982 46.7569 83.982 45.7038C83.982 44.6079 84.3031 43.756 84.9452 43.148C85.5959 42.5317 86.4693 42.2234 87.5651 42.2234C88.6697 42.2234 89.5301 42.493 90.1466 43.0325C90.763 43.5719 91.0712 44.3339 91.0712 45.3184V45.9606ZM89.9025 44.9846C89.9025 44.3853 89.6842 43.9186 89.2475 43.5848C88.8195 43.2508 88.2543 43.0838 87.5524 43.0838C86.8331 43.0838 86.2594 43.2636 85.8313 43.6233C85.4032 43.9743 85.1721 44.458 85.1379 45.0745H89.9025V44.9846ZM91.7125 42.4161H93.2536V40.7337L94.3966 40.2584V42.4161H96.6827V43.3407H94.3966V46.6541C94.3966 47.0909 94.4994 47.4119 94.7048 47.6174C94.9104 47.8143 95.2314 47.9128 95.6681 47.9128C95.9935 47.9128 96.336 47.8699 96.6955 47.7843V48.799C96.3615 48.9103 95.9463 48.9658 95.4497 48.9658C94.6192 48.9658 94.0456 48.769 93.7288 48.3751C93.412 47.9727 93.2536 47.4204 93.2536 46.7184V43.3407H91.7125V42.4161ZM97.7717 42.4161H98.9532L100.546 47.155C100.606 47.3434 100.657 47.5617 100.7 47.81H100.726C100.734 47.7072 100.76 47.5874 100.803 47.4504C100.845 47.3134 100.875 47.215 100.892 47.155L102.613 42.4161H103.846L105.567 47.155C105.67 47.5317 105.726 47.7501 105.734 47.81H105.76C105.794 47.6046 105.841 47.3862 105.901 47.155L107.494 42.4161H108.688L106.428 48.8374H105.118L103.397 44.0985C103.311 43.8673 103.26 43.6575 103.243 43.4692H103.217C103.183 43.666 103.131 43.8758 103.063 44.0985L101.329 48.8374H100.032L97.7717 42.4161ZM113.052 49.0301C112.325 49.0301 111.682 48.8931 111.126 48.6191C110.569 48.3365 110.137 47.9384 109.829 47.4247C109.529 46.911 109.379 46.3116 109.379 45.6267C109.379 44.9417 109.529 44.3424 109.829 43.8287C110.137 43.315 110.569 42.9211 111.126 42.6472C111.682 42.3647 112.325 42.2234 113.052 42.2234C113.78 42.2234 114.418 42.3647 114.966 42.6472C115.522 42.9211 115.95 43.315 116.25 43.8287C116.558 44.3424 116.712 44.9417 116.712 45.6267C116.712 46.3116 116.558 46.911 116.25 47.4247C115.95 47.9384 115.522 48.3365 114.966 48.6191C114.418 48.8931 113.78 49.0301 113.052 49.0301ZM113.052 48.054C113.814 48.054 114.414 47.8442 114.85 47.4247C115.295 46.9966 115.518 46.3973 115.518 45.6267C115.518 44.8561 115.295 44.2611 114.85 43.8416C114.414 43.4135 113.814 43.1994 113.052 43.1994C112.282 43.1994 111.678 43.4135 111.241 43.8416C110.805 44.2611 110.586 44.8561 110.586 45.6267C110.586 46.3973 110.805 46.9966 111.241 47.4247C111.678 47.8442 112.282 48.054 113.052 48.054ZM119.567 44.0471C119.738 43.5077 120.029 43.0711 120.44 42.7371C120.851 42.4032 121.335 42.2362 121.891 42.2362C122.063 42.2362 122.226 42.2491 122.379 42.2748V43.3792C122.208 43.3621 122.076 43.3535 121.981 43.3535C121.596 43.3535 121.266 43.4049 120.992 43.5077C120.727 43.6105 120.496 43.7645 120.299 43.97C120.042 44.2354 119.866 44.5565 119.772 44.9332C119.687 45.3014 119.644 45.7337 119.644 46.2303V48.8374H118.514V42.4161H119.567V44.0471ZM126.822 45.5111L125.076 46.8853V48.8374H123.945V39.5264H125.076V45.6396L128.826 42.4161H130.393L127.683 44.8047L130.573 48.8374H129.16L126.822 45.5111Z" fill="#1F2753"/>
<path d="M10.4278 41.67C8.77263 40.5941 7.61398 38.9389 7.11741 37.1181L3.47594 21.9729L0 19.6557L4.30355 37.7802C4.96564 40.3458 6.53809 42.5804 8.77263 44.07L22.9247 53.5047V50.0288L10.4278 41.67ZM51.9737 21.8074L48.3321 37.1181C47.8356 39.0216 46.677 40.6768 45.0218 41.7527L32.4421 50.1115V53.5875L46.5942 44.1528C48.8288 42.6631 50.4012 40.4286 51.0633 37.863L55.4495 19.4901L51.9737 21.8074ZM32.0284 0.868986C29.2973 -0.289662 26.1524 -0.289662 23.4213 0.868986L0.910366 10.552L3.72422 12.4554L24.5799 3.51733C26.5661 2.60696 28.8834 2.60696 30.8697 3.51733L51.7253 12.5383L54.5393 10.6347L32.0284 0.868986Z" fill="#1F2753"/>
<path d="M25.0766 25.6987C24.1662 25.6987 23.1731 25.4504 22.3454 24.8711L18.0419 21.9745L20.6075 20.2364L23.9179 22.471C24.58 22.8849 25.4904 22.8849 26.1525 22.471L34.8423 16.6777L37.4079 18.4158L27.7249 24.8711C26.98 25.4504 25.9869 25.6987 25.0766 25.6987Z" fill="#1F2753"/>
<path d="M30.3735 27.7678C31.2839 27.7678 32.277 28.016 33.1046 28.5954L37.4082 31.492L34.7598 33.23L31.4494 30.9955C30.7873 30.5817 29.877 30.5817 29.2148 30.9955L20.525 36.7887L17.9595 35.0507L27.6424 28.5954C28.4701 28.016 29.4631 27.7678 30.3735 27.7678Z" fill="#1F2753"/>
</g>
<defs>
<clipPath id="clip0_5634_37048">
<rect width="170.506" height="53.5875" fill="white"/>
</clipPath>
</defs>
</svg>
