<svg width="1421" height="222" viewBox="0 0 1421 222" fill="none" xmlns="http://www.w3.org/2000/svg">
<g clip-path="url(#clip0_8582_77387)">
<path d="M122.476 174.246L168.744 268.384L168.882 268.663H169.95L169.951 268.164L170.041 222.715L199.574 253.283V289.5H145.932L103.744 203.854L103.606 203.574H98.457V289.5H68.835L69.1094 174.082L122.476 174.246ZM115.917 72.9443L115.753 126.476L21.6162 172.744L21.3369 172.882V173.95L21.8359 173.951L67.376 174.041L36.8076 203.574H0.5V149.932L86.1465 107.744L86.4258 107.606V102.476H0.5V72.834L115.917 72.9443ZM140.05 4.5L182.256 90.1465L182.394 90.4258H187.524V4.5H217.166V119.917L163.523 119.753L117.256 25.6162L117.118 25.3369H116.05L116.049 25.8359L115.958 71.21L86.4258 40.6416V4.5H140.05ZM264.645 120.05L264.146 120.049L218.899 119.958L249.469 90.4258H285.5V144.067L199.854 186.256L199.574 186.394V191.524H285.5V221.166H208.105V220.981H170.083L170.246 167.523L264.365 121.256L264.645 121.118V120.05Z" stroke="#1F2753"/>
</g>
<path d="M400.585 36.9336L444.233 200.661L444.332 201.032H449.462V36.9336H480.008V221.5H420.182L376.533 57.7725L376.434 57.4014H371.046V221.5H340.5V36.9336H400.585Z" stroke="#1F2753"/>
<path d="M576.897 84.1143C589.897 84.1143 601.483 86.7572 611.666 92.0137C621.825 97.2672 629.84 104.898 635.719 114.878C641.591 124.866 644.528 136.792 644.528 150.675V154.921C644.528 168.804 641.591 180.692 635.72 190.586C629.841 200.493 621.825 208.125 611.663 213.472C601.48 218.819 589.914 221.5 576.897 221.5C563.881 221.5 552.259 218.82 542.002 213.472C531.747 208.124 523.676 200.51 517.817 190.587L517.816 190.586C511.946 180.692 509.008 168.823 509.008 154.921V150.675C509.008 136.792 511.945 124.866 517.817 114.878C523.695 104.881 531.746 97.2687 541.998 92.0146C552.256 86.7574 563.88 84.1143 576.897 84.1143ZM576.897 110.138C565.649 110.138 556.415 113.762 549.241 121.029C542.055 128.309 538.502 138.474 538.502 151.469V154.127C538.502 167.122 542.055 177.285 549.241 184.565C556.416 191.852 565.649 195.458 576.897 195.458C588.146 195.458 597.38 191.833 604.554 184.565C611.74 177.285 615.293 167.122 615.293 154.127V151.469C615.293 138.473 611.722 128.31 604.555 121.03L604.554 121.029C597.38 113.762 588.146 110.138 576.897 110.138Z" stroke="#1F2753"/>
<path d="M818.3 89.1357C826.346 89.1357 833.648 90.8908 840.197 94.375V94.374C846.737 97.8715 851.967 103.009 855.91 109.818C859.842 116.608 861.806 125.099 861.806 135.281V221.463H832.312V137.403C832.311 129.711 830.256 123.786 826.07 119.677H826.069C821.891 115.594 816.086 113.572 808.757 113.572C800.681 113.572 794.224 116.22 789.428 121.564C784.63 126.91 782.267 134.504 782.267 144.308V221.481H753.05V137.422C753.05 129.729 750.994 123.804 746.809 119.695H746.808C742.63 115.612 736.824 113.591 729.495 113.591C721.238 113.591 714.741 116.236 710.033 121.587C705.33 126.933 703.023 134.525 703.023 144.326V221.5H673.529V91.5166H702.488V106.1H707.796L707.936 105.829C710.174 101.515 713.96 97.6438 719.298 94.2256C724.58 90.8426 731.675 89.1358 740.625 89.1357C750.104 89.1357 757.677 91.0616 763.402 94.8848C769.166 98.7334 773.518 103.615 776.486 109.533L776.625 109.81H781.488L781.626 109.533C784.597 103.61 788.859 98.7104 794.456 94.8818L794.457 94.8809C799.989 91.0841 807.923 89.1357 818.3 89.1357Z" stroke="#1F2753"/>
<path d="M952.862 84.1143C969.929 84.1143 983.273 88.3755 992.958 96.8564C1002.63 105.322 1007.5 117.574 1007.5 133.729V185.156C1007.5 187.874 1008.13 190.008 1009.49 191.462C1010.85 192.922 1012.86 193.611 1015.42 193.611H1026.05V217.789H1005.08C998.799 217.789 993.71 216.224 989.756 213.133C985.825 210.06 983.856 205.872 983.856 200.532V199.497H978.521L978.393 199.801C977.363 202.22 975.526 205.193 972.879 208.704L972.878 208.705C970.283 212.166 966.332 215.166 961.01 217.69L961.008 217.691C955.713 220.23 948.505 221.5 939.351 221.5C930.219 221.5 921.982 219.868 914.633 216.632C907.289 213.398 901.476 208.729 897.213 202.627V202.626L896.818 202.052C892.813 196.072 890.806 188.763 890.806 180.116C890.806 171.359 892.943 164.046 897.208 158.148L897.209 158.147C901.467 152.233 907.368 147.728 914.878 144.658C922.413 141.604 931.005 140.063 940.661 140.062H979.075V131.607C979.075 124.611 976.914 118.867 972.564 114.423L972.563 114.422C968.187 109.97 961.405 107.775 952.327 107.775C943.414 107.775 936.608 109.877 931.979 114.146C927.518 118.259 924.539 123.525 923.07 129.906L895.969 120.95C898.08 114.312 901.396 108.249 905.937 102.761L905.938 102.762C910.57 97.1809 916.724 92.6645 924.436 89.2393C932.125 85.8237 941.595 84.1143 952.862 84.1143ZM942.544 162.1C935.94 162.1 930.514 163.536 926.347 166.435C922.135 169.363 920.041 173.68 920.041 179.305C920.041 184.758 922.237 189.204 926.603 192.564V192.565C930.946 195.942 936.902 197.58 944.39 197.58C954.25 197.58 962.387 194.865 968.773 189.371L969.386 188.831C975.874 182.982 979.094 175.105 979.094 165.258V162.1H942.544Z" stroke="#1F2753"/>
<path d="M1191.11 33.2236V217.79H1162.42V200.567H1157.14L1156.99 200.811C1153.86 206.028 1149.05 210.795 1142.56 215.103C1136.11 219.346 1126.77 221.5 1114.45 221.5C1103.94 221.5 1094.11 218.919 1085.01 213.739L1085.01 213.738C1075.91 208.583 1068.64 200.994 1063.2 191.008H1063.2C1057.77 181.018 1055.05 169.014 1055.05 154.939V150.693C1055.05 136.618 1057.77 124.595 1063.2 114.624C1068.64 104.619 1075.87 97.0486 1084.88 91.8936C1093.91 86.7325 1103.77 84.1329 1114.47 84.1328C1122.55 84.1328 1129.4 85.1073 1134.98 87.0225C1140.58 88.9458 1145.08 91.3913 1148.47 94.3467C1151.88 97.3222 1154.54 100.545 1156.45 104.013L1156.59 104.271H1161.89V33.2236H1191.11ZM1123.46 109.621C1112.72 109.621 1103.69 112.988 1096.38 119.696L1095.68 120.356C1088.22 127.547 1084.52 137.94 1084.52 151.469V154.127C1084.52 167.474 1088.23 177.826 1095.68 185.107C1103.11 192.367 1112.37 195.993 1123.46 195.993C1134.54 195.993 1143.77 192.368 1151.11 185.105C1158.46 177.824 1162.13 167.472 1162.13 154.127V151.469C1162.13 137.962 1158.52 127.552 1151.24 120.36C1143.97 113.188 1134.7 109.621 1123.46 109.621Z" stroke="#1F2753"/>
<path d="M1254.62 91.5537V221.5H1225.13V91.5537H1254.62ZM1239.74 35.0879C1245.46 35.0879 1250.15 36.8577 1253.85 40.377C1257.54 43.8863 1259.4 48.5653 1259.4 54.4678C1259.4 60.1858 1257.66 64.756 1254.19 68.2266L1253.85 68.5586C1250.13 72.0787 1245.46 73.8476 1239.74 73.8477C1234.38 73.8477 1229.78 72.0838 1225.9 68.5518C1222.05 65.0402 1220.11 60.3628 1220.11 54.4678C1220.11 48.592 1222.05 43.9144 1225.91 40.3838L1225.9 40.3828C1229.78 36.8511 1234.38 35.0879 1239.74 35.0879Z" stroke="#1F2753"/>
<path d="M1355.5 84.1514C1367.6 84.1514 1377.97 86.2209 1386.65 90.3232L1387.49 90.7266C1396.33 95.1038 1403.48 101.105 1408.9 108.73V108.731C1414.24 116.238 1417.71 124.611 1419.32 133.892L1390.9 139.777C1390.15 134.441 1388.48 129.57 1385.87 125.151C1383.16 120.566 1379.35 116.922 1374.42 114.224C1369.47 111.515 1363.4 110.193 1356.29 110.193C1348.96 110.193 1342.38 111.76 1336.56 114.886L1336.56 114.887C1330.73 118.038 1326.15 122.746 1322.84 129.011C1319.53 135.281 1317.88 142.786 1317.88 151.506V154.164C1317.88 162.883 1319.51 170.352 1322.85 176.533V176.532C1326.16 182.703 1330.73 187.427 1336.56 190.651C1342.38 193.871 1348.96 195.477 1356.29 195.477C1367.15 195.477 1375.48 192.667 1381.16 186.986C1386.7 181.44 1390.2 174.317 1391.67 165.644L1420.09 172.293C1417.96 181.232 1414.23 189.407 1408.88 196.806V196.807C1403.45 204.342 1396.31 210.345 1387.46 214.815C1378.63 219.258 1367.99 221.5 1355.5 221.5C1342.85 221.5 1331.43 218.857 1321.26 213.6C1311.42 208.51 1303.59 201.19 1297.77 191.664L1297.21 190.735C1291.34 180.748 1288.4 168.75 1288.4 154.681V150.971C1288.4 136.901 1291.34 124.884 1297.21 114.916V114.915C1303.09 104.917 1311.1 97.3046 1321.26 92.0508C1331.43 86.7935 1342.85 84.1514 1355.5 84.1514Z" stroke="#1F2753"/>
<defs>
<clipPath id="clip0_8582_77387">
<rect width="286" height="222" fill="white"/>
</clipPath>
</defs>
</svg>
