<?xml version="1.0" encoding="utf-8"?>
<!-- Generator: Adobe Illustrator 24.3.0, SVG Export Plug-In . SVG Version: 6.00 Build 0)  -->
<svg version="1.1" xmlns="http://www.w3.org/2000/svg" xmlns:xlink="http://www.w3.org/1999/xlink" x="0px" y="0px"
	 viewBox="600 905 790 180" xml:space="preserve">
<style type="text/css">
	.st0{fill:#1F2753;}
</style>
<g id="Layer_1">
	<g>
	</g>
	<g>
		<g>
			<g>
				<path class="st0" d="M831.76,1049.76V949.23h33.03l23.7,88.9h2.3v-88.9h17.09v100.53h-32.89l-23.7-88.9h-2.44v88.9H831.76z"/>
				<path class="st0" d="M956.13,1051.77c-7.09,0-13.43-1.46-19.03-4.38c-5.6-2.92-10.01-7.08-13.21-12.5
					c-3.21-5.41-4.81-11.89-4.81-19.46v-2.3c0-7.56,1.6-14.07,4.81-19.53c3.21-5.46,7.61-9.62,13.21-12.49
					c5.6-2.87,11.94-4.31,19.03-4.31c7.08,0,13.4,1.44,18.96,4.31c5.55,2.87,9.93,7.04,13.14,12.49c3.21,5.46,4.81,11.97,4.81,19.53
					v2.3c0,7.56-1.6,14.05-4.81,19.46c-3.21,5.41-7.59,9.58-13.14,12.5C969.53,1050.31,963.22,1051.77,956.13,1051.77z
					 M956.13,1037.12c6.03,0,10.96-1.94,14.79-5.82c3.83-3.88,5.74-9.31,5.74-16.3v-1.44c0-6.99-1.92-12.42-5.74-16.3
					c-3.83-3.88-8.76-5.82-14.79-5.82s-10.96,1.94-14.79,5.82c-3.83,3.88-5.74,9.31-5.74,16.3v1.44c0,6.99,1.91,12.42,5.74,16.3
					C945.17,1035.19,950.1,1037.12,956.13,1037.12z"/>
				<path class="st0" d="M1004.81,1049.76v-70.94h16.23v7.9h2.44c1.24-2.39,3.33-4.52,6.25-6.39c2.92-1.87,6.82-2.8,11.7-2.8
					c5.17,0,9.33,1.05,12.49,3.16c3.16,2.11,5.55,4.79,7.18,8.04h2.3c1.63-3.25,3.97-5.94,7.04-8.04c3.06-2.1,7.42-3.16,13.07-3.16
					c4.4,0,8.4,0.96,11.99,2.87c3.59,1.92,6.46,4.74,8.62,8.47s3.23,8.38,3.23,13.93v46.96h-16.52v-45.81c0-4.12-1.1-7.25-3.3-9.41
					c-2.2-2.15-5.27-3.23-9.19-3.23c-4.31,0-7.73,1.41-10.27,4.24c-2.54,2.83-3.81,6.87-3.81,12.14v42.08h-16.37v-45.81
					c0-4.12-1.1-7.25-3.3-9.41c-2.2-2.15-5.27-3.23-9.19-3.23c-4.41,0-7.85,1.41-10.34,4.24c-2.49,2.83-3.73,6.87-3.73,12.14v42.08
					H1004.81z"/>
				<path class="st0" d="M1143.83,1051.77c-4.98,0-9.48-0.89-13.5-2.66c-4.02-1.77-7.21-4.33-9.55-7.68
					c-2.35-3.35-3.52-7.47-3.52-12.35c0-4.79,1.17-8.81,3.52-12.06c2.34-3.25,5.58-5.72,9.69-7.4c4.12-1.67,8.81-2.51,14.07-2.51
					h20.54v-4.31c0-3.73-1.15-6.77-3.45-9.12c-2.3-2.34-5.89-3.52-10.77-3.52c-4.79,0-8.4,1.13-10.84,3.38
					c-2.44,2.25-4.05,5.15-4.81,8.69l-15.22-5.03c1.15-3.73,2.99-7.13,5.53-10.2c2.54-3.06,5.91-5.53,10.12-7.4
					c4.21-1.87,9.38-2.8,15.51-2.8c9.29,0,16.59,2.32,21.9,6.97c5.31,4.65,7.97,11.37,7.97,20.18v27.86c0,2.87,1.34,4.31,4.02,4.31
					h6.03v13.64h-11.63c-3.45,0-6.27-0.86-8.47-2.58c-2.2-1.72-3.3-4.07-3.3-7.04v-0.29h-2.44c-0.57,1.34-1.58,2.97-3.02,4.88
					c-1.44,1.92-3.62,3.57-6.53,4.95C1152.76,1051.08,1148.81,1051.77,1143.83,1051.77z M1146.56,1038.27
					c5.46,0,9.91-1.55,13.36-4.67c3.45-3.11,5.17-7.3,5.17-12.57v-1.44h-19.53c-3.54,0-6.42,0.77-8.62,2.3
					c-2.2,1.53-3.3,3.78-3.3,6.75c0,2.87,1.15,5.2,3.45,6.97C1139.38,1037.39,1142.54,1038.27,1146.56,1038.27z"/>
				<path class="st0" d="M1226.41,1051.77c-5.74,0-11.11-1.41-16.08-4.24c-4.98-2.82-8.95-6.97-11.92-12.42
					c-2.97-5.46-4.45-12.01-4.45-19.67v-2.3c0-7.66,1.48-14.22,4.45-19.67c2.97-5.46,6.92-9.6,11.85-12.42
					c4.93-2.82,10.32-4.24,16.16-4.24c4.4,0,8.14,0.53,11.2,1.58c3.06,1.05,5.53,2.39,7.4,4.02c1.87,1.63,3.33,3.4,4.38,5.31h2.44
					v-38.49h16.37v100.53h-16.08v-9.33h-2.44c-1.72,2.87-4.36,5.48-7.9,7.83C1238.23,1050.6,1233.11,1051.77,1226.41,1051.77z
					 M1231.29,1037.41c5.94,0,10.87-1.94,14.79-5.82c3.92-3.88,5.89-9.41,5.89-16.59v-1.44c0-7.27-1.94-12.83-5.82-16.66
					c-3.88-3.83-8.83-5.74-14.86-5.74c-5.94,0-10.89,1.92-14.86,5.74c-3.97,3.83-5.96,9.38-5.96,16.66v1.44
					c0,7.18,1.99,12.71,5.96,16.59C1220.4,1035.47,1225.35,1037.41,1231.29,1037.41z"/>
				<path class="st0" d="M1291.61,969.77c-2.97,0-5.53-0.98-7.68-2.94c-2.15-1.96-3.23-4.57-3.23-7.83c0-3.25,1.08-5.86,3.23-7.83
					c2.15-1.96,4.71-2.94,7.68-2.94c3.16,0,5.77,0.98,7.83,2.94c2.06,1.96,3.09,4.57,3.09,7.83c0,3.26-1.03,5.87-3.09,7.83
					C1297.37,968.79,1294.77,969.77,1291.61,969.77z M1283.42,1049.76v-70.94h16.52v70.94H1283.42z"/>
				<path class="st0" d="M1348.33,1051.77c-6.89,0-13.12-1.44-18.67-4.31c-5.55-2.87-9.93-7.04-13.14-12.49
					c-3.21-5.46-4.81-12.01-4.81-19.67v-2.01c0-7.66,1.6-14.22,4.81-19.67c3.21-5.46,7.59-9.62,13.14-12.49
					c5.55-2.87,11.78-4.31,18.67-4.31c6.8,0,12.61,1.2,17.45,3.59c4.83,2.39,8.74,5.67,11.7,9.84c2.97,4.17,4.88,8.83,5.74,14
					l-15.94,3.3c-0.38-2.97-1.29-5.67-2.73-8.11s-3.47-4.38-6.1-5.82c-2.63-1.44-5.87-2.15-9.69-2.15c-3.93,0-7.45,0.84-10.56,2.51
					c-3.11,1.68-5.55,4.19-7.32,7.54c-1.77,3.35-2.66,7.37-2.66,12.06v1.44c0,4.69,0.88,8.69,2.66,11.99
					c1.77,3.3,4.21,5.82,7.32,7.54c3.11,1.72,6.63,2.58,10.56,2.58c5.84,0,10.27-1.51,13.28-4.52c3.02-3.02,4.91-6.92,5.67-11.7
					l15.94,3.73c-1.15,4.98-3.21,9.53-6.18,13.64c-2.97,4.12-6.87,7.4-11.7,9.84C1360.94,1050.55,1355.13,1051.77,1348.33,1051.77z"
					/>
			</g>
		</g>
		<path class="st0" d="M708.14,1065.64H708l-25.14-51.15l-29.35-0.09l-0.15,63.07h16.59v-46.55h2.35l22.93,46.55h29.5v-20
			l-16.54-17.12L708.14,1065.64z M771.28,998.58v-29.5h-19.9l-17.12,16.54l25.18,0.05v0.14l-51.14,25.14l-0.09,29.4h20.6v0.1h42.47
			v-16.6h-46.55v-2.34L771.28,998.58z M717.66,922.53v46.55h-2.34l-22.94-46.55h-29.49v19.96l16.54,17.12l0.05-25.25h0.14
			l25.14,51.15l29.5,0.09v-63.07H717.66z M616.34,959.55v16.6h46.55v2.34l-46.55,22.93v29.5h20.05l17.12-16.54l-25.34-0.05v-0.14
			l51.15-25.14l0.09-29.44L616.34,959.55z"/>
	</g>
</g>
<g id="Outlines">
</g>
<g id="Gridlines">
</g>
<g id="Anchors">
</g>
</svg>
