<svg width="164" height="62" viewBox="0 0 164 62" fill="none" xmlns="http://www.w3.org/2000/svg">
<mask id="mask0_5634_37069" style="mask-type:luminance" maskUnits="userSpaceOnUse" x="0" y="0" width="164" height="62">
<path d="M163.248 0H0V61.8074H163.248V0Z" fill="white"/>
</mask>
<g mask="url(#mask0_5634_37069)">
<path d="M69.6565 20.2702V11.8237H66.6844C66.2558 11.8237 66.0415 11.6094 66.0415 11.1808C66.0415 10.7524 66.2558 10.5381 66.6844 10.5381H73.9178C74.3464 10.5381 74.5606 10.7524 74.5606 11.1808C74.5606 11.6094 74.3464 11.8237 73.9178 11.8237H70.9421V20.2702C70.9421 20.4741 70.8869 20.6331 70.7728 20.7472C70.6588 20.8577 70.4998 20.9165 70.2959 20.9165C69.8673 20.9165 69.653 20.7022 69.653 20.2736" fill="#1F2753"/>
<path d="M76.8003 20.7119C76.6689 20.5805 76.5999 20.4319 76.5999 20.266V11.1594C76.5999 10.9866 76.6654 10.8345 76.8003 10.7067C76.9316 10.5789 77.0802 10.5166 77.2461 10.5166C77.4189 10.5166 77.5709 10.5822 77.6989 10.7067C77.8267 10.8345 77.889 10.9831 77.889 11.1594V15.0059H84.1443V11.1594C84.1443 10.9866 84.2065 10.8345 84.3344 10.7067C84.4622 10.5789 84.6108 10.5166 84.7872 10.5166C84.9634 10.5166 85.112 10.5822 85.2399 10.7067C85.3677 10.8345 85.4299 10.9831 85.4299 11.1594V20.266C85.4299 20.4284 85.3677 20.577 85.2399 20.7119C85.112 20.8432 84.9634 20.9123 84.7872 20.9123C84.6108 20.9123 84.4622 20.8501 84.3344 20.7223C84.2065 20.5943 84.1443 20.4422 84.1443 20.2695V16.2985H77.889V20.2695C77.889 20.4319 77.8232 20.5805 77.6989 20.7153C77.5709 20.8466 77.4223 20.9158 77.2461 20.9158C77.0802 20.9158 76.9351 20.8501 76.8003 20.7153" fill="#1F2753"/>
<path d="M95.2384 19.793C95.3489 19.907 95.4077 20.0659 95.4077 20.2699C95.4077 20.4738 95.3524 20.6327 95.2384 20.7434C95.1244 20.8574 94.9689 20.9128 94.7615 20.9128H89.2595C89.0556 20.9128 88.8966 20.8574 88.7826 20.7434C88.6685 20.6293 88.6133 20.4738 88.6133 20.2699V11.1667C88.6133 10.9628 88.6685 10.8038 88.7826 10.6933C88.8966 10.5793 89.0521 10.5239 89.2595 10.5239H94.7615C94.9654 10.5239 95.1244 10.5793 95.2384 10.6933C95.3489 10.8073 95.4077 10.9628 95.4077 11.1667C95.4077 11.3706 95.3524 11.5296 95.2384 11.6437C95.1244 11.7577 94.9689 11.813 94.7615 11.813H89.9024V15.0306H92.9506C93.1545 15.0306 93.3134 15.0859 93.4274 15.1999C93.5414 15.3139 93.5968 15.473 93.5968 15.6769C93.5968 15.8807 93.5414 16.0398 93.4274 16.1503C93.3134 16.2643 93.1579 16.3197 92.9506 16.3197H89.9024V19.6306H94.7615C94.9654 19.6306 95.1244 19.6858 95.2384 19.7999" fill="#1F2753"/>
<path d="M68.8307 32.5267H72.5701L70.6553 27.8819L68.8307 32.5267ZM75.1759 35.6371C75.1759 35.8826 75.0376 36.0623 74.7612 36.1728C74.6678 36.2143 74.5676 36.2351 74.4536 36.2351C74.2082 36.2351 74.0285 36.0967 73.918 35.8203L73.0884 33.8123H68.3226L67.5243 35.8203C67.4102 36.0967 67.2339 36.2351 66.9886 36.2351C66.8883 36.2351 66.7882 36.2143 66.6982 36.1728C66.4114 36.0726 66.2698 35.8929 66.2698 35.6371C66.2698 35.5231 66.2905 35.4228 66.3319 35.3296L69.9815 26.3473C70.1335 26.0087 70.3755 25.8428 70.7003 25.8428H70.7314C71.0701 25.8635 71.2913 26.0329 71.4053 26.3473L75.1137 35.3296C75.1552 35.4228 75.1759 35.5231 75.1759 35.6371Z" fill="#1F2753"/>
<path d="M78.0792 35.4021C77.5229 34.8456 77.2429 33.9782 77.2429 32.8032V26.4855C77.2429 26.0571 77.4572 25.8428 77.8858 25.8428C78.3143 25.8428 78.5286 26.0571 78.5286 26.4855V32.8032C78.5286 33.363 78.5943 33.7985 78.729 34.0991C78.8603 34.3999 79.0781 34.6177 79.3822 34.7524C79.6829 34.8837 80.1148 34.9529 80.6782 34.9529H82.5168C83.0767 34.9529 83.5122 34.8872 83.8128 34.7524C84.1135 34.6211 84.3312 34.4034 84.466 34.0991C84.5974 33.7985 84.6664 33.3665 84.6664 32.8032V26.4855C84.6664 26.0571 84.8807 25.8428 85.3093 25.8428C85.7378 25.8428 85.9521 26.0571 85.9521 26.4855V32.8032C85.9521 33.9782 85.6722 34.8456 85.1158 35.4021C84.5594 35.9585 83.6919 36.2385 82.5168 36.2385H80.6782C79.5032 36.2385 78.6357 35.962 78.0792 35.4021Z" fill="#1F2753"/>
<path d="M91.4541 35.5931V27.1465H88.4819C88.0534 27.1465 87.8391 26.9322 87.8391 26.5037C87.8391 26.0751 88.0534 25.8608 88.4819 25.8608H95.7153C96.1439 25.8608 96.3582 26.0751 96.3582 26.5037C96.3582 26.9322 96.1439 27.1465 95.7153 27.1465H92.7397V35.5931C92.7397 35.797 92.6844 35.956 92.5704 36.0665C92.4563 36.1806 92.2973 36.2358 92.0934 36.2358C91.6649 36.2358 91.4506 36.0215 91.4506 35.5931" fill="#1F2753"/>
<path d="M102.685 34.9497C103.248 34.9497 103.68 34.8841 103.981 34.7492C104.282 34.6145 104.499 34.4002 104.634 34.0961C104.766 33.7955 104.835 33.3634 104.835 32.8001V29.275C104.835 28.722 104.769 28.2934 104.634 27.9859C104.503 27.6782 104.282 27.4606 103.974 27.3257C103.667 27.1944 103.238 27.1252 102.685 27.1252H100.846C100.293 27.1149 99.865 27.1771 99.5574 27.3084C99.2498 27.4398 99.032 27.6609 98.8972 27.9686C98.766 28.2761 98.6968 28.7047 98.6968 29.2577V32.8001C98.6968 33.3599 98.7625 33.7955 98.8972 34.0961C99.0285 34.3967 99.2463 34.6145 99.5505 34.7492C99.8511 34.8807 100.283 34.9497 100.846 34.9497H102.685ZM98.2476 35.4025C97.6911 34.8461 97.4111 33.9786 97.4111 32.8035V29.2612C97.4111 28.0861 97.6911 27.2186 98.2545 26.6622C98.8144 26.1058 99.6783 25.8328 100.843 25.8431H102.682C103.857 25.8431 104.724 26.1196 105.281 26.6795C105.837 27.2359 106.117 28.1034 106.117 29.2785V32.8035C106.117 33.9786 105.84 34.8461 105.281 35.4025C104.721 35.9589 103.857 36.2388 102.682 36.2388H100.843C99.668 36.2388 98.8005 35.9624 98.2441 35.4025" fill="#1F2753"/>
<path d="M120.436 26.4436C120.436 26.5265 120.422 26.6129 120.391 26.7027L117.554 35.685C117.481 35.8682 117.395 36.0064 117.294 36.0997C117.194 36.193 117.056 36.238 116.88 36.238H116.849C116.52 36.238 116.296 36.0548 116.175 35.685L113.814 28.0679L113.828 28.3755L111.557 35.685C111.485 35.8785 111.402 36.0202 111.305 36.1067C111.208 36.193 111.067 36.238 110.884 36.238C110.732 36.238 110.607 36.193 110.517 36.1067C110.424 36.0202 110.348 35.8785 110.286 35.685L107.448 26.7027C107.417 26.5887 107.403 26.4988 107.403 26.4263C107.403 26.3122 107.438 26.2155 107.503 26.1359C107.569 26.053 107.673 25.977 107.818 25.9045C107.939 25.8526 108.043 25.8284 108.126 25.8284C108.371 25.8284 108.551 25.9908 108.661 26.3191L110.991 33.722L113.199 26.3952C113.261 26.212 113.351 26.0738 113.469 25.9804C113.586 25.8872 113.742 25.8422 113.935 25.8422C114.291 25.8526 114.526 26.0358 114.64 26.3952L116.849 33.722L119.178 26.3191C119.282 26.0012 119.458 25.8457 119.714 25.8457C119.776 25.8457 119.876 25.8664 120.021 25.9079C120.298 26.0392 120.436 26.2189 120.436 26.4436Z" fill="#1F2753"/>
<path d="M123.58 32.5267H127.32L125.405 27.8819L123.58 32.5267ZM129.925 35.6371C129.925 35.8826 129.787 36.0623 129.51 36.1728C129.417 36.2143 129.318 36.2351 129.203 36.2351C128.958 36.2351 128.778 36.0967 128.668 35.8203L127.838 33.8123H123.072L122.274 35.8203C122.16 36.0967 121.984 36.2351 121.738 36.2351C121.638 36.2351 121.538 36.2143 121.448 36.1728C121.161 36.0726 121.019 35.8929 121.019 35.6371C121.019 35.5231 121.04 35.4228 121.081 35.3296L124.731 26.3473C124.883 26.0087 125.125 25.8428 125.45 25.8428H125.481C125.82 25.8635 126.041 26.0329 126.155 26.3473L129.863 35.3296C129.904 35.4228 129.925 35.5231 129.925 35.6371Z" fill="#1F2753"/>
<path d="M137.985 28.7424C137.985 28.1686 137.863 27.7573 137.618 27.5086C137.374 27.2563 136.959 27.1319 136.378 27.1319H133.434V30.8126H136.378C136.961 30.8126 137.374 30.6915 137.618 30.4462C137.863 30.2008 137.985 29.7861 137.985 29.2054V28.7458V28.7424ZM138.705 31.1478C138.327 31.6385 137.778 31.9391 137.062 32.0533L139.07 35.3952C139.132 35.4989 139.164 35.6095 139.164 35.7338C139.164 35.9585 139.049 36.1382 138.825 36.2695C138.693 36.3525 138.576 36.3906 138.472 36.3906C138.269 36.3906 138.096 36.2764 137.951 36.0519L135.621 32.1742L135.576 32.0981H133.429V35.5922C133.429 35.7961 133.374 35.955 133.261 36.0657C133.147 36.1763 132.991 36.2351 132.787 36.2351C132.583 36.2351 132.424 36.1797 132.31 36.0657C132.197 35.955 132.141 35.7961 132.141 35.5922V26.4855C132.141 26.2816 132.197 26.1226 132.31 26.0121C132.424 25.9016 132.58 25.8428 132.787 25.8428H136.375C137.314 25.8428 138.034 26.0915 138.527 26.5858C139.021 27.0835 139.27 27.7989 139.27 28.7389V29.1985C139.27 30.0038 139.081 30.6535 138.705 31.1443" fill="#1F2753"/>
<path d="M148.347 35.1192C148.458 35.2331 148.516 35.3887 148.516 35.596C148.516 35.8034 148.461 35.9589 148.347 36.0694C148.232 36.1836 148.077 36.2388 147.87 36.2388H142.368C142.165 36.2388 142.005 36.1836 141.895 36.0694C141.78 35.9555 141.725 35.8 141.725 35.596V26.4929C141.725 26.2889 141.78 26.13 141.895 26.0194C142.008 25.9053 142.165 25.8501 142.368 25.8501H147.87C148.073 25.8501 148.232 25.9053 148.347 26.0194C148.458 26.1334 148.516 26.2889 148.516 26.4929C148.516 26.6968 148.461 26.8557 148.347 26.9699C148.232 27.0839 148.077 27.1392 147.87 27.1392H143.011V30.3567H146.059C146.262 30.3567 146.421 30.4121 146.536 30.5261C146.65 30.6401 146.705 30.799 146.705 31.0029C146.705 31.2069 146.65 31.3658 146.536 31.4765C146.421 31.5905 146.267 31.6458 146.059 31.6458H143.011V34.9567H147.87C148.073 34.9567 148.232 35.0119 148.347 35.1261" fill="#1F2753"/>
<path d="M67.3578 51.3989C67.2438 51.2883 67.1885 51.1294 67.1885 50.922V41.8188C67.1885 41.6149 67.2438 41.4559 67.3578 41.3419C67.472 41.2313 67.6275 41.1726 67.8348 41.1726H73.4751C73.679 41.1726 73.8379 41.2278 73.9519 41.3419C74.0659 41.4559 74.1213 41.6114 74.1213 41.8188C74.1213 42.0262 74.0659 42.1817 73.9519 42.2957C73.8379 42.4098 73.6824 42.4652 73.4751 42.4652H68.4776V45.6827H71.5569C71.7608 45.6827 71.9198 45.738 72.0339 45.852C72.1479 45.9626 72.2032 46.1215 72.2032 46.3254C72.2032 46.5294 72.1479 46.6883 72.0339 46.799C71.9198 46.913 71.7643 46.9683 71.5569 46.9683H68.4776V50.922C68.4776 51.1259 68.4223 51.2849 68.3083 51.3989C68.1943 51.513 68.0388 51.5682 67.8314 51.5682C67.624 51.5682 67.4685 51.513 67.3544 51.3989" fill="#1F2753"/>
<path d="M80.4633 50.2795C81.0267 50.2795 81.4588 50.2138 81.7594 50.0791C82.06 49.9443 82.2778 49.73 82.4126 49.4259C82.5439 49.1252 82.613 48.6932 82.613 48.1299V44.6047C82.613 44.0517 82.5474 43.6233 82.4126 43.3156C82.2812 43.0081 82.06 42.7903 81.7525 42.6555C81.4449 42.5243 81.0163 42.4551 80.4633 42.4551H78.6247C78.0718 42.4447 77.6433 42.507 77.3358 42.6383C77.0281 42.7695 76.8103 42.9908 76.6756 43.2984C76.5443 43.606 76.4751 44.0344 76.4751 44.5874V48.1299C76.4751 48.6898 76.5408 49.1252 76.6756 49.4259C76.8069 49.7266 77.0246 49.9443 77.3288 50.0791C77.6295 50.2104 78.0614 50.2795 78.6247 50.2795H80.4633ZM76.0259 50.7323C75.4695 50.1759 75.1895 49.3083 75.1895 48.1334V44.5909C75.1895 43.4159 75.4695 42.5485 76.0328 41.992C76.5927 41.4356 77.4567 41.1625 78.6213 41.1729H80.4599C81.635 41.1729 82.5024 41.4494 83.0589 42.0093C83.6153 42.5658 83.8952 43.4332 83.8952 44.6082V48.1334C83.8952 49.3083 83.6187 50.1759 83.0589 50.7323C82.5024 51.2888 81.635 51.5686 80.4599 51.5686H78.6213C77.4463 51.5686 76.5789 51.2922 76.0224 50.7323" fill="#1F2753"/>
<path d="M87.4002 50.7319C86.8437 50.1755 86.5637 49.3081 86.5637 48.1329V41.8154C86.5637 41.3868 86.778 41.1726 87.2066 41.1726C87.6351 41.1726 87.8494 41.3868 87.8494 41.8154V48.1329C87.8494 48.6928 87.9151 49.1283 88.0498 49.429C88.1811 49.7297 88.3989 49.9474 88.703 50.0822C89.0037 50.2135 89.4356 50.2827 89.999 50.2827H91.8376C92.3975 50.2827 92.833 50.217 93.1336 50.0822C93.4343 49.9508 93.652 49.7332 93.7868 49.429C93.9182 49.1283 93.9872 48.6963 93.9872 48.1329V41.8154C93.9872 41.3868 94.2015 41.1726 94.6301 41.1726C95.0586 41.1726 95.2729 41.3868 95.2729 41.8154V48.1329C95.2729 49.3081 94.993 50.1755 94.4366 50.7319C93.8802 51.2883 93.0127 51.5682 91.8376 51.5682H89.999C88.824 51.5682 87.9564 51.2918 87.4002 50.7319Z" fill="#1F2753"/>
<path d="M106.549 41.3419C106.663 41.4559 106.718 41.6114 106.718 41.8188V50.922C106.718 51.1259 106.663 51.2849 106.549 51.3989C106.435 51.5096 106.28 51.5682 106.072 51.5682C105.951 51.5682 105.837 51.5372 105.733 51.475C105.633 51.4127 105.53 51.316 105.426 51.1847L99.5887 43.6574V50.922C99.5887 51.1259 99.5334 51.2849 99.4194 51.3989C99.3052 51.5096 99.1497 51.5682 98.9424 51.5682C98.735 51.5682 98.5795 51.513 98.4655 51.3989C98.3514 51.2849 98.2961 51.1294 98.2961 50.922V41.8188C98.2961 41.6149 98.3514 41.4559 98.4655 41.3419C98.5795 41.2278 98.735 41.1726 98.9424 41.1726C99.0634 41.1726 99.174 41.2036 99.2707 41.2659C99.3675 41.3281 99.4711 41.4248 99.5853 41.5562L105.422 49.0834V41.8188C105.422 41.6149 105.478 41.4559 105.592 41.3419C105.706 41.2278 105.861 41.1726 106.065 41.1726C106.269 41.1726 106.428 41.2278 106.542 41.3419" fill="#1F2753"/>
<path d="M114.245 50.2792C114.909 50.2792 115.428 50.1962 115.801 50.0338C116.174 49.8714 116.44 49.6018 116.606 49.2285C116.769 48.8552 116.851 48.3369 116.851 47.6734V45.0675C116.851 44.404 116.769 43.8856 116.606 43.5123C116.444 43.1391 116.174 42.8694 115.801 42.707C115.428 42.5446 114.909 42.4617 114.245 42.4617H111.197V50.2792H114.245ZM110.078 51.3989C109.964 51.2883 109.908 51.1294 109.908 50.922V41.8188C109.908 41.6149 109.964 41.4559 110.078 41.3419C110.192 41.2313 110.347 41.1726 110.555 41.1726H114.249C115.59 41.1726 116.572 41.4871 117.2 42.116C117.829 42.745 118.144 43.7266 118.144 45.0675V47.6734C118.144 49.0142 117.829 49.9958 117.2 50.6248C116.572 51.2537 115.59 51.5682 114.249 51.5682H110.555C110.351 51.5682 110.192 51.513 110.078 51.3989Z" fill="#1F2753"/>
<path d="M122.447 47.8565H126.186L124.271 43.2116L122.447 47.8565ZM128.792 50.967C128.792 51.2122 128.654 51.392 128.377 51.5026C128.284 51.5441 128.183 51.5648 128.07 51.5648C127.824 51.5648 127.644 51.4265 127.535 51.1501L126.705 49.1422H121.939L121.14 51.1501C121.026 51.4265 120.85 51.5648 120.605 51.5648C120.504 51.5648 120.404 51.5441 120.314 51.5026C120.028 51.4023 119.886 51.2226 119.886 50.967C119.886 50.8528 119.907 50.7527 119.948 50.6593L123.598 41.6772C123.75 41.3385 123.992 41.1726 124.316 41.1726H124.348C124.686 41.1934 124.907 41.3627 125.021 41.6772L128.73 50.6593C128.771 50.7492 128.792 50.8528 128.792 50.967Z" fill="#1F2753"/>
<path d="M132.255 50.9227V42.4761H129.283C128.854 42.4761 128.64 42.2618 128.64 41.8333C128.64 41.4047 128.854 41.1904 129.283 41.1904H136.517C136.945 41.1904 137.159 41.4047 137.159 41.8333C137.159 42.2618 136.945 42.4761 136.517 42.4761H133.541V50.9227C133.541 51.1264 133.486 51.2855 133.371 51.3995C133.258 51.5101 133.099 51.5689 132.895 51.5689C132.467 51.5689 132.252 51.3546 132.252 50.9261" fill="#1F2753"/>
<path d="M139.35 51.4134C139.251 51.3131 139.198 51.1472 139.198 50.9227V41.8333C139.198 41.6086 139.251 41.4462 139.35 41.3425C139.454 41.2423 139.616 41.1904 139.842 41.1904C140.066 41.1904 140.229 41.2423 140.333 41.3425C140.432 41.4462 140.485 41.6086 140.485 41.8333V50.9227C140.485 51.1472 140.432 51.3131 140.333 51.4134C140.229 51.517 140.066 51.5654 139.842 51.5654C139.616 51.5654 139.454 51.5135 139.35 51.4134Z" fill="#1F2753"/>
<path d="M148.578 50.2795C149.142 50.2795 149.575 50.2138 149.875 50.0791C150.175 49.9443 150.394 49.73 150.528 49.4259C150.659 49.1252 150.728 48.6932 150.728 48.1299V44.6047C150.728 44.0517 150.662 43.6233 150.528 43.3156C150.396 43.0081 150.175 42.7903 149.868 42.6555C149.561 42.5243 149.132 42.4551 148.578 42.4551H146.74C146.186 42.4447 145.759 42.507 145.45 42.6383C145.143 42.7695 144.926 42.9908 144.791 43.2984C144.659 43.606 144.59 44.0344 144.59 44.5874V48.1299C144.59 48.6898 144.656 49.1252 144.791 49.4259C144.922 49.7266 145.139 49.9443 145.444 50.0791C145.745 50.2104 146.177 50.2795 146.74 50.2795H148.578ZM144.142 50.7323C143.584 50.1759 143.305 49.3083 143.305 48.1334V44.5909C143.305 43.4159 143.584 42.5485 144.149 41.992C144.708 41.4356 145.575 41.1625 146.737 41.1729H148.576C149.75 41.1729 150.618 41.4494 151.174 42.0093C151.73 42.5658 152.011 43.4332 152.011 44.6082V48.1334C152.011 49.3083 151.734 50.1759 151.174 50.7323C150.618 51.2888 149.75 51.5686 148.576 51.5686H146.737C145.561 51.5686 144.694 51.2922 144.138 50.7323" fill="#1F2753"/>
<path d="M163.08 41.3419C163.193 41.4559 163.249 41.6114 163.249 41.8188V50.922C163.249 51.1259 163.193 51.2849 163.08 51.3989C162.965 51.5096 162.81 51.5682 162.603 51.5682C162.481 51.5682 162.367 51.5372 162.264 51.475C162.164 51.4127 162.06 51.316 161.957 51.1847L156.118 43.6574V50.922C156.118 51.1259 156.063 51.2849 155.95 51.3989C155.836 51.5096 155.68 51.5682 155.472 51.5682C155.265 51.5682 155.11 51.513 154.996 51.3989C154.882 51.2849 154.826 51.1294 154.826 50.922V41.8188C154.826 41.6149 154.882 41.4559 154.996 41.3419C155.11 41.2278 155.265 41.1726 155.472 41.1726C155.594 41.1726 155.705 41.2036 155.802 41.2659C155.898 41.3281 156.001 41.4248 156.116 41.5562L161.952 49.0834V41.8188C161.952 41.6149 162.008 41.4559 162.123 41.3419C162.236 41.2278 162.391 41.1726 162.596 41.1726C162.799 41.1726 162.958 41.2278 163.073 41.3419" fill="#1F2753"/>
<path d="M26.7254 59.682L3.31436 46.1586L50.095 46.1965L26.7254 59.682ZM26.1898 2.43655L1.91464 44.0435L1.84206 16.582L26.1898 2.43655ZM27.2646 2.43309L51.6882 16.4471L51.7608 43.729L27.2646 2.43309ZM26.7289 30.6653L50.4648 45.5849L3.41106 45.5469L26.7254 30.6653H26.7289ZM26.7289 2.73026L51.0904 43.8051L26.722 28.4914L2.7856 43.767L26.7289 2.73026ZM53.5268 15.3827L26.722 0L0 15.5209L0.0794934 46.4247L26.7289 61.8074L53.6029 46.2865L53.5233 15.3827H53.5268Z" fill="#1F2753"/>
</g>
</svg>
